GolosTextVF-TextRegular.ufo
<glyph name="exclam" format="2">
  <advance width="300"/>
  <unicode hex="0021"/>
  <outline>
    <contour>
      <point x="106" y="220" type="line"/>
      <point x="194" y="220" type="line" name="iv01"/>
      <point x="194" y="700" type="line"/>
      <point x="106" y="700" type="line" name="sh01"/>
    </contour>
    <contour>
      <point x="150" y="-10" type="curve" smooth="yes"/>
      <point x="189" y="-10"/>
      <point x="220" y="21" name="sv01"/>
      <point x="220" y="60" type="curve" smooth="yes"/>
      <point x="220" y="100" name="ih01"/>
      <point x="189" y="130" name="ih02"/>
      <point x="150" y="130" type="curve" smooth="yes" name="ih03"/>
      <point x="111" y="130"/>
      <point x="80" y="100"/>
      <point x="80" y="60" type="curve" smooth="yes"/>
      <point x="80" y="21"/>
      <point x="111" y="-10"/>
    </contour>
  </outline>
</glyph>
<glyph name="ampersand" format="2">
  <advance width="670"/>
  <unicode hex="0026"/>
  <outline>
    <contour>
      <point x="285" y="-10" type="curve" smooth="yes"/>
      <point x="365" y="-10"/>
      <point x="435" y="16"/>
      <point x="488" y="63" type="curve"/>
      <point x="546" y="0" type="line" name="hr01"/>
      <point x="660" y="0" type="line"/>
      <point x="543" y="130" type="line"/>
      <point x="576" y="183"/>
      <point x="595" y="250"/>
      <point x="595" y="330" type="curve"/>
      <point x="507" y="330" type="line"/>
      <point x="507" y="281"/>
      <point x="499" y="238"/>
      <point x="482" y="199" type="curve"/>
      <point x="313" y="387" type="line"/>
      <point x="410" y="460"/>
      <point x="435" y="510"/>
      <point x="435" y="560" type="curve" smooth="yes"/>
      <point x="435" y="645"/>
      <point x="371" y="710"/>
      <point x="275" y="710" type="curve" smooth="yes"/>
      <point x="179" y="710"/>
      <point x="115" y="645"/>
      <point x="115" y="560" type="curve" smooth="yes"/>
      <point x="115" y="504"/>
      <point x="125" y="472"/>
      <point x="189" y="397" type="curve"/>
      <point x="91" y="323"/>
      <point x="60" y="265" name="hr02"/>
      <point x="60" y="190" type="curve" smooth="yes" name="hr01"/>
      <point x="60" y="74"/>
      <point x="143" y="-10"/>
    </contour>
    <contour>
      <point x="285" y="68" type="curve" smooth="yes"/>
      <point x="197" y="68"/>
      <point x="148" y="118"/>
      <point x="148" y="190" type="curve" smooth="yes"/>
      <point x="148" y="242"/>
      <point x="162" y="276"/>
      <point x="242" y="337" type="curve"/>
      <point x="432" y="126" type="line"/>
      <point x="392" y="87"/>
      <point x="343" y="68"/>
    </contour>
    <contour>
      <point x="203" y="560" type="curve" smooth="yes"/>
      <point x="203" y="600"/>
      <point x="235" y="632" name="hr03"/>
      <point x="275" y="632" type="curve" smooth="yes"/>
      <point x="316" y="632"/>
      <point x="347" y="601"/>
      <point x="347" y="560" type="curve" smooth="yes"/>
      <point x="347" y="533"/>
      <point x="340" y="506"/>
      <point x="260" y="447" type="curve"/>
      <point x="212" y="502"/>
      <point x="203" y="526"/>
    </contour>
  </outline>
</glyph>
<glyph name="parenleft" format="2">
  <advance width="380"/>
  <unicode hex="0028"/>
  <outline>
    <contour>
      <point x="90" y="240" type="line" smooth="yes"/>
      <point x="90" y="109"/>
      <point x="133" y="-1"/>
      <point x="177" y="-78" type="curve"/>
      <point x="202" y="-124"/>
      <point x="231" y="-165"/>
      <point x="264" y="-200" type="curve"/>
      <point x="370" y="-200" type="line"/>
      <point x="334" y="-165"/>
      <point x="302" y="-124"/>
      <point x="275" y="-78" type="curve"/>
      <point x="227" y="-1"/>
      <point x="180" y="109"/>
      <point x="180" y="240" type="curve" smooth="yes"/>
      <point x="180" y="260" type="line" smooth="yes"/>
      <point x="180" y="390"/>
      <point x="227" y="500"/>
      <point x="275" y="577" type="curve" smooth="yes"/>
      <point x="302" y="622"/>
      <point x="334" y="663"/>
      <point x="370" y="700" type="curve"/>
      <point x="268" y="700" type="line"/>
      <point x="235" y="663"/>
      <point x="205" y="622"/>
      <point x="179" y="577" type="curve" smooth="yes"/>
      <point x="134" y="498"/>
      <point x="90" y="391"/>
      <point x="90" y="260" type="curve" smooth="yes"/>
    </contour>
  </outline>
</glyph>
<glyph name="slash" format="2">
  <advance width="480"/>
  <unicode hex="002F"/>
  <outline>
    <contour>
      <point x="40" y="-200" type="line"/>
      <point x="124" y="-200" type="line" name="ab01"/>
      <point x="440" y="700" type="line"/>
      <point x="356" y="700" type="line" name="ih01"/>
    </contour>
  </outline>
</glyph>
<glyph name="zero" format="2">
  <advance width="620"/>
  <unicode hex="0030"/>
  <outline>
    <contour>
      <point x="310" y="-10" type="curve" smooth="yes"/>
      <point x="446" y="-10"/>
      <point x="560" y="72"/>
      <point x="560" y="350" type="curve" smooth="yes" name="at01"/>
      <point x="560" y="370" type="line" smooth="yes"/>
      <point x="560" y="628"/>
      <point x="446" y="710" name="ih01"/>
      <point x="310" y="710" type="curve" smooth="yes"/>
      <point x="174" y="710"/>
      <point x="60" y="628"/>
      <point x="60" y="370" type="curve" smooth="yes" name="sv01"/>
      <point x="60" y="350" type="line" smooth="yes"/>
      <point x="60" y="72"/>
      <point x="174" y="-10" name="sh01"/>
    </contour>
    <contour>
      <point x="310" y="72" type="curve" smooth="yes" name="ih03"/>
      <point x="226" y="72"/>
      <point x="154" y="122"/>
      <point x="154" y="350" type="curve" smooth="yes"/>
      <point x="154" y="370" type="line" smooth="yes"/>
      <point x="154" y="578"/>
      <point x="226" y="628"/>
      <point x="310" y="628" type="curve" smooth="yes"/>
      <point x="394" y="628"/>
      <point x="466" y="578"/>
      <point x="466" y="370" type="curve" smooth="yes"/>
      <point x="466" y="350" type="line" smooth="yes"/>
      <point x="466" y="122"/>
      <point x="394" y="72"/>
    </contour>
  </outline>
</glyph>
<glyph name="four" format="2">
  <advance width="610"/>
  <unicode hex="0034"/>
  <outline>
    <contour>
      <point x="376" y="0" type="line"/>
      <point x="470" y="0" type="line" name="ab01"/>
      <point x="470" y="169" type="line"/>
      <point x="560" y="169" type="line" name="sv04"/>
      <point x="560" y="251" type="line"/>
      <point x="470" y="251" type="line" name="sv03"/>
      <point x="470" y="700" type="line"/>
      <point x="366" y="700" type="line" name="ih01"/>
      <point x="20" y="241" type="line" name="sv02"/>
      <point x="20" y="169" type="line"/>
      <point x="376" y="169" type="line" name="sv01"/>
    </contour>
    <contour>
      <point x="120" y="251" type="line"/>
      <point x="376" y="590" type="line" name="iv01"/>
      <point x="376" y="251" type="line" name="sh01"/>
    </contour>
  </outline>
</glyph>
<glyph name="five" format="2">
  <advance width="580"/>
  <unicode hex="0035"/>
  <outline>
    <contour>
      <point x="290" y="-10" type="curve" smooth="yes"/>
      <point x="432" y="-10"/>
      <point x="530" y="85" name="iv02"/>
      <point x="530" y="235" type="curve" smooth="yes" name="iv04"/>
      <point x="530" y="394"/>
      <point x="444" y="480" name="sv03"/>
      <point x="305" y="480" type="curve" smooth="yes"/>
      <point x="249" y="480" name="at01"/>
      <point x="204" y="461"/>
      <point x="169" y="423" type="curve" name="iv03"/>
      <point x="169" y="618" type="line" name="sv02"/>
      <point x="490" y="618" type="line"/>
      <point x="490" y="700" type="line" name="sv01"/>
      <point x="75" y="700" type="line"/>
      <point x="75" y="330" type="line" name="iv01"/>
      <point x="159" y="330" type="line" name="ih01"/>
      <point x="180" y="365" name="ih02"/>
      <point x="218" y="396" name="ih03"/>
      <point x="290" y="396" type="curve" smooth="yes"/>
      <point x="364" y="396"/>
      <point x="436" y="351"/>
      <point x="436" y="235" type="curve" smooth="yes"/>
      <point x="436" y="134"/>
      <point x="381" y="74"/>
      <point x="290" y="74" type="curve" smooth="yes"/>
      <point x="210" y="74"/>
      <point x="161" y="119"/>
      <point x="154" y="170" type="curve" name="hr01"/>
      <point x="60" y="170" type="line"/>
      <point x="65" y="80"/>
      <point x="139" y="-10"/>
    </contour>
  </outline>
</glyph>
<glyph name="six" format="2">
  <advance width="605"/>
  <unicode hex="0036"/>
  <outline>
    <contour>
      <point x="315" y="-10" type="curve" smooth="yes"/>
      <point x="444" y="-10"/>
      <point x="550" y="86"/>
      <point x="550" y="219" type="curve" smooth="yes"/>
      <point x="550" y="229" type="line" smooth="yes"/>
      <point x="550" y="374"/>
      <point x="460" y="455"/>
      <point x="320" y="455" type="curve" smooth="yes"/>
      <point x="257" y="455"/>
      <point x="184" y="430"/>
      <point x="146" y="365" type="curve"/>
      <point x="151" y="564"/>
      <point x="224" y="626"/>
      <point x="325" y="626" type="curve" smooth="yes"/>
      <point x="384" y="626"/>
      <point x="422" y="602"/>
      <point x="441" y="555" type="curve" name="hr01"/>
      <point x="535" y="555" type="line"/>
      <point x="511" y="659"/>
      <point x="433" y="710"/>
      <point x="325" y="710" type="curve" smooth="yes"/>
      <point x="179" y="710"/>
      <point x="60" y="606"/>
      <point x="60" y="330" type="curve" smooth="yes"/>
      <point x="60" y="310" type="line" smooth="yes"/>
      <point x="60" y="90"/>
      <point x="160" y="-10"/>
    </contour>
    <contour>
      <point x="307" y="74" type="curve" smooth="yes"/>
      <point x="210" y="74"/>
      <point x="158" y="126"/>
      <point x="158" y="218" type="curve" smooth="yes" name="hr02"/>
      <point x="158" y="228" type="line" smooth="yes"/>
      <point x="158" y="320"/>
      <point x="210" y="371"/>
      <point x="307" y="371" type="curve" smooth="yes"/>
      <point x="404" y="371"/>
      <point x="456" y="320"/>
      <point x="456" y="228" type="curve" smooth="yes"/>
      <point x="456" y="218" type="line" smooth="yes"/>
      <point x="456" y="125"/>
      <point x="404" y="74"/>
    </contour>
  </outline>
</glyph>
<glyph name="seven" format="2">
  <advance width="530"/>
  <unicode hex="0037"/>
  <outline>
    <contour>
      <point x="140" y="0" type="line"/>
      <point x="240" y="0" type="line" name="ih01"/>
      <point x="490" y="623" type="line" name="sv02"/>
      <point x="490" y="700" type="line"/>
      <point x="20" y="700" type="line" name="at01"/>
      <point x="20" y="618" type="line"/>
      <point x="392" y="618" type="line" name="sv01"/>
    </contour>
  </outline>
</glyph>
<glyph name="nine" format="2">
  <advance width="605"/>
  <unicode hex="0039"/>
  <outline>
    <contour>
      <point x="285" y="-10" type="curve" smooth="yes"/>
      <point x="425" y="-10"/>
      <point x="545" y="94"/>
      <point x="545" y="370" type="curve" smooth="yes"/>
      <point x="545" y="390" type="line" smooth="yes"/>
      <point x="545" y="611"/>
      <point x="447" y="710"/>
      <point x="290" y="710" type="curve" smooth="yes"/>
      <point x="161" y="710"/>
      <point x="55" y="614"/>
      <point x="55" y="481" type="curve" smooth="yes"/>
      <point x="55" y="471" type="line" smooth="yes"/>
      <point x="55" y="326"/>
      <point x="145" y="245"/>
      <point x="285" y="245" type="curve" smooth="yes"/>
      <point x="348" y="245"/>
      <point x="421" y="270"/>
      <point x="459" y="335" type="curve" name="hr01"/>
      <point x="454" y="136"/>
      <point x="381" y="74"/>
      <point x="285" y="74" type="curve" smooth="yes"/>
      <point x="223" y="74"/>
      <point x="183" y="98"/>
      <point x="164" y="145" type="curve" name="hr02"/>
      <point x="70" y="145" type="line"/>
      <point x="94" y="41"/>
      <point x="172" y="-10"/>
    </contour>
    <contour>
      <point x="298" y="329" type="curve" smooth="yes"/>
      <point x="201" y="329"/>
      <point x="149" y="380"/>
      <point x="149" y="472" type="curve" smooth="yes"/>
      <point x="149" y="482" type="line" smooth="yes"/>
      <point x="149" y="577"/>
      <point x="201" y="626"/>
      <point x="298" y="626" type="curve" smooth="yes"/>
      <point x="394" y="626"/>
      <point x="447" y="573"/>
      <point x="447" y="482" type="curve" smooth="yes"/>
      <point x="447" y="472" type="line" smooth="yes"/>
      <point x="447" y="380"/>
      <point x="395" y="329"/>
    </contour>
  </outline>
</glyph>
<glyph name="greater" format="2">
  <advance width="550"/>
  <unicode hex="003E"/>
  <outline>
    <contour>
      <point x="50" y="600" type="line" name="sv01"/>
      <point x="50" y="502" type="line" name="iv04"/>
      <point x="390" y="358" type="line" name="ih01"/>
      <point x="50" y="214" type="line" name="iv03"/>
      <point x="50" y="120" type="line" name="av01"/>
      <point x="500" y="321" type="line" name="iv02"/>
      <point x="500" y="399" type="line" name="iv01"/>
    </contour>
  </outline>
  <guideline angle="0" x="0" y="360"/>
</glyph>
<glyph name="A" format="2">
  <advance width="670"/>
  <unicode hex="0041"/>
  <outline>
    <contour>
      <point x="548" y="0" type="line"/>
      <point x="650" y="0" type="line" name="ab02"/>
      <point x="382" y="700" type="line"/>
      <point x="288" y="700" type="line" name="sh01"/>
      <point x="20" y="0" type="line"/>
      <point x="118" y="0" type="line" name="ab01"/>
      <point x="185" y="174" type="line"/>
      <point x="481" y="174" type="line" name="sv01"/>
    </contour>
    <contour>
      <point x="333" y="580" type="line" name="ih01"/>
      <point x="450" y="256" type="line" name="iv01"/>
      <point x="216" y="256" type="line"/>
    </contour>
  </outline>
</glyph>
<glyph name="B" format="2">
  <advance width="670"/>
  <unicode hex="0042"/>
  <outline>
    <contour>
      <point x="100" y="0" type="line"/>
      <point x="370" y="0" type="line" smooth="yes" name="ab01"/>
      <point x="549" y="0"/>
      <point x="620" y="84" name="iv01"/>
      <point x="620" y="198" type="curve" smooth="yes"/>
      <point x="620" y="289" name="ih01"/>
      <point x="569" y="346" name="at01"/>
      <point x="486" y="365" type="curve"/>
      <point x="545" y="388"/>
      <point x="590" y="441" name="sh01"/>
      <point x="590" y="513" type="curve" smooth="yes" name="hr01"/>
      <point x="590" y="622" name="sv01"/>
      <point x="517" y="700"/>
      <point x="350" y="700" type="curve" smooth="yes"/>
      <point x="100" y="700" type="line" name="sv02"/>
    </contour>
    <contour>
      <point x="194" y="82" type="line"/>
      <point x="194" y="321" type="line" name="sh02"/>
      <point x="369" y="321" type="line" smooth="yes" name="ih02"/>
      <point x="490" y="321" name="ih03"/>
      <point x="526" y="274" name="hr02"/>
      <point x="526" y="201" type="curve" smooth="yes"/>
      <point x="526" y="129"/>
      <point x="490" y="82"/>
      <point x="370" y="82" type="curve" smooth="yes"/>
    </contour>
    <contour>
      <point x="194" y="399" type="line"/>
      <point x="194" y="618" type="line"/>
      <point x="350" y="618" type="line" smooth="yes"/>
      <point x="462" y="618"/>
      <point x="496" y="574" name="hr03"/>
      <point x="496" y="509" type="curve" smooth="yes"/>
      <point x="496" y="445"/>
      <point x="462" y="399"/>
      <point x="350" y="399" type="curve" smooth="yes"/>
    </contour>
  </outline>
</glyph>
<glyph name="D" format="2">
  <advance width="700"/>
  <unicode hex="0044"/>
  <outline>
    <contour>
      <point x="100" y="0" type="line"/>
      <point x="295" y="0" type="line" smooth="yes"/>
      <point x="511" y="0"/>
      <point x="640" y="121"/>
      <point x="640" y="345" type="curve" smooth="yes"/>
      <point x="640" y="365" type="line" smooth="yes"/>
      <point x="640" y="585"/>
      <point x="515" y="700"/>
      <point x="305" y="700" type="curve" smooth="yes"/>
      <point x="100" y="700" type="line"/>
    </contour>
    <contour>
      <point x="194" y="82" type="line"/>
      <point x="194" y="618" type="line"/>
      <point x="295" y="618" type="line" smooth="yes"/>
      <point x="445" y="618"/>
      <point x="540" y="544"/>
      <point x="540" y="365" type="curve" smooth="yes"/>
      <point x="540" y="345" type="line" smooth="yes"/>
      <point x="540" y="158"/>
      <point x="443" y="82"/>
      <point x="285" y="82" type="curve" smooth="yes"/>
    </contour>
  </outline>
</glyph>
<glyph name="E" format="2">
  <advance width="610"/>
  <unicode hex="0045"/>
  <outline>
    <contour>
      <point x="100" y="0" type="line"/>
      <point x="550" y="0" type="line" name="ab01"/>
      <point x="550" y="82" type="line"/>
      <point x="194" y="82" type="line" name="sv03"/>
      <point x="194" y="319" type="line"/>
      <point x="520" y="319" type="line" name="sv02"/>
      <point x="520" y="401" type="line" name="iv01"/>
      <point x="194" y="401" type="line"/>
      <point x="194" y="618" type="line" name="ih01"/>
      <point x="550" y="618" type="line" name="sv01"/>
      <point x="550" y="700" type="line"/>
      <point x="100" y="700" type="line" name="at01"/>
    </contour>
  </outline>
</glyph>
<glyph name="G" format="2">
  <advance width="705"/>
  <unicode hex="0047"/>
  <outline>
    <contour>
      <point x="365" y="-10" type="curve" smooth="yes"/>
      <point x="541" y="-10"/>
      <point x="650" y="109"/>
      <point x="650" y="325" type="curve" smooth="yes" name="iv02"/>
      <point x="650" y="355" type="line" name="sv03"/>
      <point x="385" y="355" type="line"/>
      <point x="385" y="275" type="line" name="sv02"/>
      <point x="560" y="275" type="line"/>
      <point x="549" y="132"/>
      <point x="476" y="74" name="sv01"/>
      <point x="365" y="74" type="curve" smooth="yes" name="iv01"/>
      <point x="266" y="74"/>
      <point x="160" y="143" name="at01"/>
      <point x="160" y="345" type="curve" smooth="yes"/>
      <point x="160" y="365" type="line" smooth="yes"/>
      <point x="160" y="557" name="ih01"/>
      <point x="256" y="626" name="ih02"/>
      <point x="365" y="626" type="curve" smooth="yes" name="ih03"/>
      <point x="437" y="626"/>
      <point x="506" y="588"/>
      <point x="535" y="500" type="curve" name="hr01"/>
      <point x="635" y="500" type="line"/>
      <point x="603" y="631"/>
      <point x="501" y="710"/>
      <point x="365" y="710" type="curve" smooth="yes"/>
      <point x="200" y="710"/>
      <point x="60" y="604"/>
      <point x="60" y="365" type="curve" smooth="yes"/>
      <point x="60" y="345" type="line" smooth="yes"/>
      <point x="60" y="97"/>
      <point x="200" y="-10"/>
    </contour>
  </outline>
</glyph>
<glyph name="H" format="2">
  <advance width="760"/>
  <unicode hex="0048"/>
  <outline>
    <contour>
      <point x="100" y="0" type="line"/>
      <point x="194" y="0" type="line" name="ab02"/>
      <point x="194" y="319" type="line"/>
      <point x="566" y="319" type="line" name="sv01"/>
      <point x="566" y="0" type="line"/>
      <point x="660" y="0" type="line" name="ab01"/>
      <point x="660" y="700" type="line"/>
      <point x="566" y="700" type="line" name="at02"/>
      <point x="566" y="401" type="line" name="iv01"/>
      <point x="194" y="401" type="line"/>
      <point x="194" y="700" type="line" name="ih01"/>
      <point x="100" y="700" type="line" name="at01"/>
    </contour>
  </outline>
</glyph>
<glyph name="K" format="2">
  <advance width="690"/>
  <unicode hex="004B"/>
  <outline>
    <contour>
      <point x="100" y="0" type="line"/>
      <point x="194" y="0" type="line" name="ab02"/>
      <point x="194" y="211" type="line"/>
      <point x="319" y="348" type="line" name="ih01"/>
      <point x="544" y="0" type="line"/>
      <point x="660" y="0" type="line" name="ab01"/>
      <point x="380" y="412" type="line"/>
      <point x="640" y="700" type="line"/>
      <point x="523" y="700" type="line" name="at02"/>
      <point x="194" y="331" type="line" name="iv01"/>
      <point x="194" y="700" type="line"/>
      <point x="100" y="700" type="line" name="at01"/>
    </contour>
  </outline>
</glyph>
<glyph name="P" format="2">
  <advance width="655"/>
  <unicode hex="0050"/>
  <outline>
    <contour>
      <point x="100" y="0" type="line"/>
      <point x="194" y="0" type="line" name="ab01"/>
      <point x="194" y="270" type="line"/>
      <point x="340" y="270" type="line" smooth="yes" name="sv01"/>
      <point x="525" y="270"/>
      <point x="610" y="360" name="sh01"/>
      <point x="610" y="485" type="curve" smooth="yes" name="at01"/>
      <point x="610" y="610"/>
      <point x="525" y="700"/>
      <point x="340" y="700" type="curve" smooth="yes" name="sv02"/>
      <point x="100" y="700" type="line"/>
    </contour>
    <contour>
      <point x="194" y="352" type="line" name="ih01"/>
      <point x="194" y="618" type="line" name="ih02"/>
      <point x="335" y="618" type="line" smooth="yes" name="ih03"/>
      <point x="468" y="618"/>
      <point x="516" y="566"/>
      <point x="516" y="485" type="curve" smooth="yes"/>
      <point x="516" y="404"/>
      <point x="468" y="352"/>
      <point x="335" y="352" type="curve" smooth="yes"/>
    </contour>
  </outline>
</glyph>
<glyph name="R" format="2">
  <advance width="680"/>
  <unicode hex="0052"/>
  <outline>
    <contour>
      <point x="100" y="0" type="line"/>
      <point x="194" y="0" type="line" name="ab02"/>
      <point x="194" y="282" type="line"/>
      <point x="352" y="282" type="line" name="sv01"/>
      <point x="519" y="0" type="line"/>
      <point x="630" y="0" type="line" name="ab01"/>
      <point x="446" y="294" type="line" name="sv02"/>
      <point x="554" y="322"/>
      <point x="610" y="397" name="ih01"/>
      <point x="610" y="490" type="curve" smooth="yes" name="at01"/>
      <point x="610" y="610"/>
      <point x="520" y="700"/>
      <point x="345" y="700" type="curve" smooth="yes" name="sv03"/>
      <point x="100" y="700" type="line"/>
    </contour>
    <contour>
      <point x="194" y="362" type="line" name="sh01"/>
      <point x="194" y="618" type="line" name="ih02"/>
      <point x="335" y="618" type="line" smooth="yes" name="ih03"/>
      <point x="464" y="618"/>
      <point x="516" y="566"/>
      <point x="516" y="490" type="curve" smooth="yes"/>
      <point x="516" y="414"/>
      <point x="464" y="362"/>
      <point x="335" y="362" type="curve" smooth="yes"/>
    </contour>
  </outline>
</glyph>
<glyph name="T" format="2">
  <advance width="620"/>
  <unicode hex="0054"/>
  <outline>
    <contour>
      <point x="263" y="0" type="line"/>
      <point x="357" y="0" type="line" name="ab01"/>
      <point x="357" y="618" type="line" name="sv02"/>
      <point x="600" y="618" type="line" name="sv01"/>
      <point x="600" y="700" type="line"/>
      <point x="20" y="700" type="line" name="at01"/>
      <point x="20" y="618" type="line"/>
      <point x="263" y="618" type="line" name="ih01"/>
    </contour>
  </outline>
</glyph>
<glyph name="U" format="2">
  <advance width="730"/>
  <unicode hex="0055"/>
  <outline>
    <contour>
      <point x="365" y="-10" type="curve" smooth="yes"/>
      <point x="532" y="-10"/>
      <point x="640" y="85"/>
      <point x="640" y="290" type="curve" smooth="yes" name="at02"/>
      <point x="640" y="700" type="line"/>
      <point x="546" y="700" type="line" name="sv01"/>
      <point x="546" y="290" type="line" smooth="yes"/>
      <point x="546" y="138"/>
      <point x="478" y="74" name="at01"/>
      <point x="365" y="74" type="curve" smooth="yes"/>
      <point x="252" y="74" name="ih01"/>
      <point x="184" y="138" name="ih02"/>
      <point x="184" y="290" type="curve" smooth="yes" name="ih03"/>
      <point x="184" y="700" type="line"/>
      <point x="90" y="700" type="line"/>
      <point x="90" y="290" type="line" smooth="yes"/>
      <point x="90" y="85"/>
      <point x="198" y="-10"/>
    </contour>
  </outline>
</glyph>
<glyph name="X" format="2">
  <advance width="660"/>
  <unicode hex="0058"/>
  <outline>
    <contour>
      <point x="30" y="0" type="line"/>
      <point x="132" y="0" type="line" name="ab02"/>
      <point x="329" y="288" type="line" name="iv01"/>
      <point x="524" y="0" type="line"/>
      <point x="630" y="0" type="line" name="ab01"/>
      <point x="384" y="359" type="line"/>
      <point x="620" y="700" type="line"/>
      <point x="520" y="700" type="line" name="at02"/>
      <point x="331" y="429" type="line" name="ih01"/>
      <point x="144" y="700" type="line"/>
      <point x="40" y="700" type="line" name="at01"/>
      <point x="277" y="357" type="line"/>
    </contour>
  </outline>
</glyph>
<glyph name="Y" format="2">
  <advance width="640"/>
  <unicode hex="0059"/>
  <outline>
    <contour>
      <point x="283" y="0" type="line"/>
      <point x="377" y="0" type="line" name="ab01"/>
      <point x="377" y="277" type="line"/>
      <point x="630" y="700" type="line"/>
      <point x="526" y="700" type="line" name="at02"/>
      <point x="329" y="374" type="line" name="ih01"/>
      <point x="118" y="700" type="line"/>
      <point x="10" y="700" type="line" name="at01"/>
      <point x="283" y="277" type="line"/>
    </contour>
  </outline>
</glyph>
<glyph name="Z" format="2">
  <advance width="600"/>
  <unicode hex="005A"/>
  <outline>
    <contour>
      <point x="45" y="0" type="line"/>
      <point x="555" y="0" type="line" name="ab01"/>
      <point x="555" y="82" type="line"/>
      <point x="153" y="82" type="line" name="sv01"/>
      <point x="545" y="623" type="line" name="sv03"/>
      <point x="545" y="700" type="line"/>
      <point x="55" y="700" type="line" name="at01"/>
      <point x="55" y="618" type="line"/>
      <point x="437" y="618" type="line" name="ih01"/>
      <point x="45" y="77" type="line" name="sv02"/>
    </contour>
  </outline>
</glyph>
<glyph name="c" format="2">
  <advance width="545"/>
  <unicode hex="0063"/>
  <outline>
    <contour>
      <point x="285" y="-10" type="curve" smooth="yes"/>
      <point x="396" y="-10"/>
      <point x="480" y="55" name="iv02"/>
      <point x="505" y="160" type="curve" name="sv02"/>
      <point x="415" y="160" type="line"/>
      <point x="396" y="104"/>
      <point x="350" y="70" name="sv01"/>
      <point x="285" y="70" type="curve" smooth="yes" name="iv01"/>
      <point x="208" y="70"/>
      <point x="135" y="123" name="at01"/>
      <point x="135" y="260" type="curve" smooth="yes"/>
      <point x="135" y="280" type="line" smooth="yes"/>
      <point x="135" y="407" name="ih01"/>
      <point x="208" y="460" name="ih02"/>
      <point x="285" y="460" type="curve" smooth="yes" name="ih03"/>
      <point x="361" y="460"/>
      <point x="394" y="421"/>
      <point x="415" y="370" type="curve" name="hr02"/>
      <point x="505" y="370" type="line"/>
      <point x="484" y="466"/>
      <point x="411" y="540"/>
      <point x="285" y="540" type="curve" smooth="yes"/>
      <point x="160" y="540"/>
      <point x="45" y="452"/>
      <point x="45" y="280" type="curve" smooth="yes"/>
      <point x="45" y="260" type="line" smooth="yes"/>
      <point x="45" y="78"/>
      <point x="149" y="-10"/>
    </contour>
  </outline>
</glyph>
<glyph name="f" format="2">
  <advance width="365"/>
  <unicode hex="0066"/>
  <outline>
    <contour>
      <point x="110" y="0" type="line"/>
      <point x="198" y="0" type="line"/>
      <point x="198" y="452" type="line"/>
      <point x="335" y="452" type="line"/>
      <point x="335" y="530" type="line"/>
      <point x="198" y="530" type="line"/>
      <point x="198" y="540" type="line" smooth="yes"/>
      <point x="198" y="604"/>
      <point x="219" y="625"/>
      <point x="280" y="625" type="curve" smooth="yes"/>
      <point x="300" y="625"/>
      <point x="325" y="625"/>
      <point x="345" y="622" type="curve" name="hr01"/>
      <point x="345" y="702" type="line"/>
      <point x="315" y="704"/>
      <point x="290" y="705"/>
      <point x="270" y="705" type="curve" smooth="yes"/>
      <point x="159" y="705"/>
      <point x="110" y="651"/>
      <point x="110" y="540" type="curve" smooth="yes"/>
      <point x="110" y="530" type="line"/>
      <point x="35" y="530" type="line"/>
      <point x="35" y="452" type="line"/>
      <point x="110" y="452" type="line"/>
    </contour>
  </outline>
</glyph>
<glyph name="h" format="2">
  <advance width="615"/>
  <unicode hex="0068"/>
  <outline>
    <contour>
      <point x="80" y="0" type="line"/>
      <point x="168" y="0" type="line"/>
      <point x="168" y="310" type="line" smooth="yes"/>
      <point x="168" y="385"/>
      <point x="212" y="460"/>
      <point x="317" y="460" type="curve" smooth="yes"/>
      <point x="414" y="460"/>
      <point x="452" y="409"/>
      <point x="452" y="310" type="curve" smooth="yes"/>
      <point x="452" y="0" type="line"/>
      <point x="540" y="0" type="line"/>
      <point x="540" y="330" type="line" smooth="yes"/>
      <point x="540" y="467"/>
      <point x="476" y="540"/>
      <point x="343" y="540" type="curve" smooth="yes"/>
      <point x="254" y="540"/>
      <point x="195" y="491"/>
      <point x="168" y="435" type="curve"/>
      <point x="168" y="700" type="line" name="hr01"/>
      <point x="80" y="700" type="line"/>
    </contour>
  </outline>
</glyph>
<glyph name="l" format="2">
  <advance width="320"/>
  <unicode hex="006C"/>
  <outline>
    <contour>
      <point x="240" y="-5" type="curve" smooth="yes"/>
      <point x="251" y="-5"/>
      <point x="274" y="-4"/>
      <point x="285" y="-1" type="curve"/>
      <point x="285" y="77" type="line"/>
      <point x="274" y="76"/>
      <point x="265" y="75"/>
      <point x="250" y="75" type="curve" smooth="yes"/>
      <point x="193" y="75"/>
      <point x="173" y="96" name="hr01"/>
      <point x="173" y="165" type="curve" smooth="yes" name="hr01"/>
      <point x="173" y="700" type="line"/>
      <point x="85" y="700" type="line"/>
      <point x="85" y="165" type="line" smooth="yes"/>
      <point x="85" y="45"/>
      <point x="129" y="-5"/>
    </contour>
  </outline>
</glyph>
<glyph name="n" format="2">
  <advance width="615"/>
  <unicode hex="006E"/>
  <outline>
    <contour>
      <point x="80" y="0" type="line"/>
      <point x="168" y="0" type="line"/>
      <point x="168" y="310" type="line" smooth="yes"/>
      <point x="168" y="385"/>
      <point x="212" y="460"/>
      <point x="317" y="460" type="curve" smooth="yes"/>
      <point x="414" y="460"/>
      <point x="452" y="409"/>
      <point x="452" y="310" type="curve" smooth="yes"/>
      <point x="452" y="0" type="line"/>
      <point x="540" y="0" type="line"/>
      <point x="540" y="330" type="line" smooth="yes"/>
      <point x="540" y="467"/>
      <point x="476" y="540"/>
      <point x="343" y="540" type="curve" smooth="yes"/>
      <point x="247" y="540"/>
      <point x="186" y="489"/>
      <point x="162" y="430" type="curve"/>
      <point x="162" y="530" type="line" name="hr01"/>
      <point x="80" y="530" type="line"/>
    </contour>
  </outline>
</glyph>
<glyph name="p" format="2">
  <advance width="615"/>
  <unicode hex="0070"/>
  <outline>
    <contour>
      <point x="80" y="-200" type="line"/>
      <point x="168" y="-200" type="line"/>
      <point x="168" y="95" type="line"/>
      <point x="199" y="35"/>
      <point x="259" y="-10"/>
      <point x="350" y="-10" type="curve" smooth="yes"/>
      <point x="481" y="-10"/>
      <point x="570" y="80"/>
      <point x="570" y="260" type="curve" smooth="yes"/>
      <point x="570" y="280" type="line" smooth="yes"/>
      <point x="570" y="452"/>
      <point x="483" y="540"/>
      <point x="350" y="540" type="curve" smooth="yes"/>
      <point x="265" y="540"/>
      <point x="198" y="501"/>
      <point x="162" y="430" type="curve"/>
      <point x="162" y="530" type="line" name="hr01"/>
      <point x="80" y="530" type="line"/>
    </contour>
    <contour>
      <point x="330" y="68" type="curve" smooth="yes"/>
      <point x="234" y="68"/>
      <point x="168" y="134"/>
      <point x="168" y="230" type="curve" smooth="yes"/>
      <point x="168" y="310" type="line" smooth="yes"/>
      <point x="168" y="396"/>
      <point x="234" y="462" name="hr02"/>
      <point x="330" y="462" type="curve" smooth="yes"/>
      <point x="416" y="462"/>
      <point x="482" y="396"/>
      <point x="482" y="280" type="curve" smooth="yes"/>
      <point x="482" y="260" type="line" smooth="yes"/>
      <point x="482" y="135"/>
      <point x="416" y="68"/>
    </contour>
  </outline>
</glyph>
<glyph name="v" format="2">
  <advance width="560"/>
  <unicode hex="0076"/>
  <outline>
    <contour>
      <point x="240" y="0" type="line"/>
      <point x="340" y="0" type="line" name="ab01"/>
      <point x="540" y="530" type="line"/>
      <point x="446" y="530" type="line" name="at02"/>
      <point x="290" y="90" type="line" name="ih01"/>
      <point x="118" y="530" type="line"/>
      <point x="20" y="530" type="line" name="at01"/>
    </contour>
  </outline>
</glyph>
<glyph name="y" format="2">
  <advance width="560"/>
  <unicode hex="0079"/>
  <outline>
    <contour>
      <point x="150" y="-210" type="curve" smooth="yes"/>
      <point x="245" y="-210"/>
      <point x="284" y="-150"/>
      <point x="340" y="0" type="curve" smooth="yes"/>
      <point x="540" y="530" type="line"/>
      <point x="446" y="530" type="line"/>
      <point x="290" y="100" type="line"/>
      <point x="118" y="530" type="line"/>
      <point x="20" y="530" type="line"/>
      <point x="245" y="0" type="line"/>
      <point x="205" y="-110"/>
      <point x="189" y="-130"/>
      <point x="150" y="-130" type="curve" smooth="yes"/>
      <point x="140" y="-130"/>
      <point x="130" y="-129"/>
      <point x="120" y="-127" type="curve"/>
      <point x="120" y="-207" type="line"/>
      <point x="130" y="-209"/>
      <point x="140" y="-210"/>
    </contour>
  </outline>
</glyph>
<glyph name="bar" format="2">
  <advance width="340"/>
  <unicode hex="007C"/>
  <outline>
    <contour>
      <point x="128" y="-200" type="line"/>
      <point x="212" y="-200" type="line" name="ab01"/>
      <point x="212" y="700" type="line"/>
      <point x="128" y="700" type="line" name="ih01"/>
    </contour>
  </outline>
</glyph>
<glyph name="braceright" format="2">
  <advance width="380"/>
  <unicode hex="007D"/>
  <outline>
    <contour>
      <point x="60" y="700" type="line"/>
      <point x="60" y="626" type="line"/>
      <point x="100" y="626" type="line" smooth="yes"/>
      <point x="137" y="626"/>
      <point x="156" y="607"/>
      <point x="156" y="570" type="curve" smooth="yes"/>
      <point x="156" y="320" type="line" smooth="yes"/>
      <point x="156" y="280"/>
      <point x="175" y="261"/>
      <point x="206" y="250" type="curve"/>
      <point x="175" y="239"/>
      <point x="156" y="220"/>
      <point x="156" y="180" type="curve" smooth="yes"/>
      <point x="156" y="-70" type="line" smooth="yes"/>
      <point x="156" y="-107"/>
      <point x="137" y="-126"/>
      <point x="100" y="-126" type="curve" smooth="yes"/>
      <point x="60" y="-126" type="line" name="hr01"/>
      <point x="60" y="-200" type="line"/>
      <point x="100" y="-200" type="line" smooth="yes"/>
      <point x="191" y="-200"/>
      <point x="240" y="-151"/>
      <point x="240" y="-60" type="curve" smooth="yes"/>
      <point x="240" y="163" type="line" smooth="yes"/>
      <point x="240" y="194"/>
      <point x="259" y="213"/>
      <point x="290" y="213" type="curve" name="hr02"/>
      <point x="290" y="287" type="line"/>
      <point x="259" y="287"/>
      <point x="240" y="306" name="hr02"/>
      <point x="240" y="337" type="curve" smooth="yes" name="hr03"/>
      <point x="240" y="560" type="line" smooth="yes"/>
      <point x="240" y="651"/>
      <point x="191" y="700"/>
      <point x="100" y="700" type="curve" smooth="yes" name="hr04"/>
    </contour>
  </outline>
</glyph>
<glyph name="exclamdown" format="2">
  <advance width="300"/>
  <unicode hex="00A1"/>
  <outline>
    <contour>
      <point x="106" y="-200" type="line"/>
      <point x="194" y="-200" type="line" name="ab01"/>
      <point x="194" y="310" type="line"/>
      <point x="106" y="310" type="line" name="sh01"/>
    </contour>
    <contour>
      <point x="150" y="400" type="curve" smooth="yes"/>
      <point x="189" y="400"/>
      <point x="220" y="431" name="at01"/>
      <point x="220" y="470" type="curve" smooth="yes"/>
      <point x="220" y="510" name="ih01"/>
      <point x="189" y="540" name="ih02"/>
      <point x="150" y="540" type="curve" smooth="yes" name="ih03"/>
      <point x="111" y="540"/>
      <point x="80" y="510"/>
      <point x="80" y="470" type="curve" smooth="yes"/>
      <point x="80" y="431"/>
      <point x="111" y="400"/>
    </contour>
  </outline>
</glyph>
<glyph name="sterling" format="2">
  <advance width="630"/>
  <unicode hex="00A3"/>
  <outline>
    <contour>
      <point x="60" y="0" type="line"/>
      <point x="570" y="0" type="line"/>
      <point x="570" y="82" type="line"/>
      <point x="244" y="82" type="line"/>
      <point x="244" y="309" type="line"/>
      <point x="425" y="309" type="line"/>
      <point x="425" y="381" type="line"/>
      <point x="244" y="381" type="line"/>
      <point x="244" y="500" type="line" smooth="yes"/>
      <point x="244" y="589"/>
      <point x="286" y="626"/>
      <point x="363" y="626" type="curve" smooth="yes"/>
      <point x="435" y="626"/>
      <point x="471" y="589"/>
      <point x="476" y="525" type="curve" name="hr01"/>
      <point x="570" y="525" type="line"/>
      <point x="565" y="633"/>
      <point x="488" y="710"/>
      <point x="363" y="710" type="curve" smooth="yes"/>
      <point x="234" y="710"/>
      <point x="150" y="631"/>
      <point x="150" y="500" type="curve" smooth="yes"/>
      <point x="150" y="381" type="line"/>
      <point x="70" y="381" type="line"/>
      <point x="70" y="309" type="line"/>
      <point x="150" y="309" type="line"/>
      <point x="150" y="82" type="line"/>
      <point x="60" y="82" type="line"/>
    </contour>
  </outline>
</glyph>
<glyph name="yen" format="2">
  <advance width="630"/>
  <unicode hex="00A5"/>
  <outline>
    <contour>
      <point x="273" y="0" type="line"/>
      <point x="367" y="0" type="line" name="ab01"/>
      <point x="367" y="156" type="line"/>
      <point x="560" y="156" type="line" name="sv07"/>
      <point x="560" y="228" type="line"/>
      <point x="367" y="228" type="line" name="sv06"/>
      <point x="367" y="312" type="line"/>
      <point x="560" y="312" type="line" name="sv05"/>
      <point x="560" y="384" type="line"/>
      <point x="422" y="384" type="line" name="sv04"/>
      <point x="605" y="700" type="line"/>
      <point x="501" y="700" type="line" name="at02"/>
      <point x="319" y="384" type="line" name="ih01"/>
      <point x="133" y="700" type="line"/>
      <point x="25" y="700" type="line" name="at01"/>
      <point x="214" y="384" type="line" name="sv02"/>
      <point x="80" y="384" type="line"/>
      <point x="80" y="312" type="line"/>
      <point x="273" y="312" type="line" name="sv03"/>
      <point x="273" y="228" type="line" name="iv01"/>
      <point x="80" y="228" type="line"/>
      <point x="80" y="156" type="line"/>
      <point x="273" y="156" type="line" name="sv01"/>
    </contour>
  </outline>
</glyph>
<glyph name="copyright" format="2">
  <advance width="830"/>
  <unicode hex="00A9"/>
  <outline>
    <contour>
      <point x="415" y="-10" type="curve" smooth="yes"/>
      <point x="615" y="-10"/>
      <point x="775" y="150" name="at01"/>
      <point x="775" y="350" type="curve" smooth="yes"/>
      <point x="775" y="552" name="ih01"/>
      <point x="617" y="710"/>
      <point x="415" y="710" type="curve" smooth="yes"/>
      <point x="215" y="710" name="sv01"/>
      <point x="55" y="550"/>
      <point x="55" y="350" type="curve" smooth="yes" name="sh01"/>
      <point x="55" y="148"/>
      <point x="213" y="-10" name="iv03"/>
    </contour>
    <contour>
      <point x="415" y="66" type="curve" smooth="yes" name="sv03"/>
      <point x="258" y="66"/>
      <point x="135" y="189"/>
      <point x="135" y="350" type="curve" smooth="yes" name="sv02"/>
      <point x="135" y="511"/>
      <point x="259" y="634" name="iv02"/>
      <point x="415" y="634" type="curve" smooth="yes" name="iv01"/>
      <point x="571" y="634"/>
      <point x="695" y="511"/>
      <point x="695" y="350" type="curve" smooth="yes" name="sh02"/>
      <point x="695" y="187" name="ih02"/>
      <point x="571" y="66" name="ih03"/>
    </contour>
    <contour>
      <point x="415" y="140" type="curve" smooth="yes"/>
      <point x="515" y="140"/>
      <point x="574" y="203"/>
      <point x="585" y="275" type="curve"/>
      <point x="505" y="275" type="line"/>
      <point x="494" y="234" name="hr01"/>
      <point x="471" y="208"/>
      <point x="415" y="208" type="curve" smooth="yes"/>
      <point x="356" y="208" name="hr02"/>
      <point x="315" y="249"/>
      <point x="315" y="345" type="curve" smooth="yes"/>
      <point x="315" y="355" type="line" smooth="yes"/>
      <point x="315" y="452"/>
      <point x="355" y="492"/>
      <point x="415" y="492" type="curve" smooth="yes"/>
      <point x="466" y="492"/>
      <point x="494" y="466"/>
      <point x="505" y="430" type="curve"/>
      <point x="585" y="430" type="line"/>
      <point x="574" y="502" name="hr03"/>
      <point x="516" y="560"/>
      <point x="415" y="560" type="curve" smooth="yes"/>
      <point x="311" y="560"/>
      <point x="235" y="484"/>
      <point x="235" y="355" type="curve" smooth="yes"/>
      <point x="235" y="345" type="line" smooth="yes"/>
      <point x="235" y="214"/>
      <point x="308" y="140"/>
    </contour>
  </outline>
</glyph>
<glyph name="mu" format="2">
  <advance width="610"/>
  <unicode hex="00B5"/>
  <outline>
    <contour>
      <point x="80" y="-200" type="line"/>
      <point x="168" y="-200" type="line"/>
      <point x="168" y="17" type="line"/>
      <point x="196" y="-1"/>
      <point x="231" y="-10"/>
      <point x="272" y="-10" type="curve" smooth="yes"/>
      <point x="363" y="-10"/>
      <point x="424" y="41"/>
      <point x="448" y="100" type="curve"/>
      <point x="448" y="0" type="line" name="hr01"/>
      <point x="530" y="0" type="line"/>
      <point x="530" y="530" type="line"/>
      <point x="442" y="530" type="line"/>
      <point x="442" y="220" type="line" smooth="yes"/>
      <point x="442" y="145"/>
      <point x="398" y="70" name="hr02"/>
      <point x="298" y="70" type="curve" smooth="yes" name="hr01"/>
      <point x="206" y="70"/>
      <point x="168" y="121"/>
      <point x="168" y="220" type="curve" smooth="yes"/>
      <point x="168" y="530" type="line"/>
      <point x="80" y="530" type="line"/>
    </contour>
  </outline>
</glyph>
<glyph name="cedilla" format="2">
  <advance width="220"/>
  <unicode hex="00B8"/>
  <outline>
    <contour>
      <point x="80" y="-210" type="curve" smooth="yes"/>
      <point x="163" y="-210"/>
      <point x="200" y="-172"/>
      <point x="200" y="-115" type="curve" smooth="yes"/>
      <point x="200" y="-85"/>
      <point x="189" y="-52"/>
      <point x="135" y="-38" type="curve"/>
      <point x="142" y="10" type="line"/>
      <point x="82" y="10" type="line"/>
      <point x="65" y="-79" type="line"/>
      <point x="114" y="-79"/>
      <point x="122" y="-97" name="hr01"/>
      <point x="122" y="-113" type="curve" smooth="yes"/>
      <point x="122" y="-132"/>
      <point x="107" y="-148"/>
      <point x="70" y="-148" type="curve" smooth="yes"/>
      <point x="55" y="-148"/>
      <point x="43" y="-147"/>
      <point x="34" y="-146" type="curve"/>
      <point x="20" y="-144" type="line" name="hr02"/>
      <point x="20" y="-204" type="line"/>
      <point x="27" y="-205"/>
      <point x="32" y="-206"/>
      <point x="39" y="-207" type="curve"/>
      <point x="50" y="-209"/>
      <point x="63" y="-210"/>
    </contour>
  </outline>
</glyph>
<glyph name="onesuperior" format="2">
  <advance width="250"/>
  <unicode hex="00B9"/>
  <outline>
    <contour>
      <point x="129" y="380" type="line"/>
      <point x="215" y="380" type="line" name="ab01"/>
      <point x="215" y="780" type="line"/>
      <point x="135" y="780" type="line" name="at01"/>
      <point x="25" y="702" type="line"/>
      <point x="25" y="616" type="line" name="iv01"/>
      <point x="129" y="690" type="line" name="hr01"/>
    </contour>
  </outline>
</glyph>
<glyph name="Eth" format="2">
  <advance width="715"/>
  <unicode hex="00D0"/>
  <outline>
    <contour>
      <point x="115" y="0" type="line"/>
      <point x="310" y="0" type="line" smooth="yes"/>
      <point x="526" y="0"/>
      <point x="655" y="121"/>
      <point x="655" y="345" type="curve" smooth="yes"/>
      <point x="655" y="365" type="line" smooth="yes"/>
      <point x="655" y="585"/>
      <point x="530" y="700"/>
      <point x="320" y="700" type="curve" smooth="yes"/>
      <point x="115" y="700" type="line"/>
      <point x="115" y="391" type="line"/>
      <point x="35" y="391" type="line"/>
      <point x="35" y="319" type="line"/>
      <point x="115" y="319" type="line"/>
    </contour>
    <contour>
      <point x="209" y="82" type="line"/>
      <point x="209" y="319" type="line"/>
      <point x="385" y="319" type="line"/>
      <point x="385" y="391" type="line"/>
      <point x="209" y="391" type="line"/>
      <point x="209" y="618" type="line"/>
      <point x="310" y="618" type="line" smooth="yes"/>
      <point x="460" y="618"/>
      <point x="555" y="544"/>
      <point x="555" y="365" type="curve" smooth="yes"/>
      <point x="555" y="345" type="line" smooth="yes"/>
      <point x="555" y="158"/>
      <point x="458" y="82"/>
      <point x="300" y="82" type="curve" smooth="yes"/>
    </contour>
  </outline>
</glyph>
<glyph name="multiply" format="2">
  <advance width="550"/>
  <unicode hex="00D7"/>
  <outline>
    <contour>
      <point x="134" y="160" type="line" name="sv02"/>
      <point x="275" y="301" type="line"/>
      <point x="416" y="160" type="line" name="iv01"/>
      <point x="475" y="219" type="line"/>
      <point x="334" y="360" type="line"/>
      <point x="475" y="501" type="line"/>
      <point x="416" y="560" type="line" name="sv01"/>
      <point x="275" y="419" type="line" name="ih01"/>
      <point x="134" y="560" type="line" name="av01"/>
      <point x="75" y="501" type="line"/>
      <point x="216" y="360" type="line"/>
      <point x="75" y="219" type="line"/>
    </contour>
  </outline>
</glyph>
<glyph name="Thorn" format="2">
  <advance width="655"/>
  <unicode hex="00DE"/>
  <outline>
    <contour>
      <point x="100" y="0" type="line"/>
      <point x="194" y="0" type="line" name="ab01"/>
      <point x="194" y="145" type="line"/>
      <point x="340" y="145" type="line" smooth="yes" name="sv01"/>
      <point x="525" y="145"/>
      <point x="610" y="235" name="sh01"/>
      <point x="610" y="360" type="curve" smooth="yes"/>
      <point x="610" y="485"/>
      <point x="525" y="575" name="at01"/>
      <point x="340" y="575" type="curve" smooth="yes"/>
      <point x="194" y="575" type="line"/>
      <point x="194" y="700" type="line" name="sv02"/>
      <point x="100" y="700" type="line"/>
    </contour>
    <contour>
      <point x="194" y="227" type="line" name="ih01"/>
      <point x="194" y="493" type="line" name="ih02"/>
      <point x="335" y="493" type="line" smooth="yes" name="ih03"/>
      <point x="468" y="493"/>
      <point x="516" y="441"/>
      <point x="516" y="360" type="curve" smooth="yes"/>
      <point x="516" y="279"/>
      <point x="468" y="227"/>
      <point x="335" y="227" type="curve" smooth="yes"/>
    </contour>
  </outline>
</glyph>
<glyph name="thorn" format="2">
  <advance width="615"/>
  <unicode hex="00FE"/>
  <outline>
    <contour>
      <point x="80" y="-200" type="line"/>
      <point x="168" y="-200" type="line"/>
      <point x="168" y="95" type="line"/>
      <point x="199" y="35"/>
      <point x="259" y="-10"/>
      <point x="350" y="-10" type="curve" smooth="yes"/>
      <point x="481" y="-10"/>
      <point x="570" y="81"/>
      <point x="570" y="260" type="curve" smooth="yes"/>
      <point x="570" y="280" type="line" smooth="yes"/>
      <point x="570" y="452"/>
      <point x="484" y="540"/>
      <point x="350" y="540" type="curve" smooth="yes"/>
      <point x="265" y="540"/>
      <point x="199" y="500"/>
      <point x="168" y="435" type="curve"/>
      <point x="168" y="700" type="line" name="hr01"/>
      <point x="80" y="700" type="line"/>
    </contour>
    <contour>
      <point x="330" y="68" type="curve" smooth="yes"/>
      <point x="234" y="68"/>
      <point x="168" y="134"/>
      <point x="168" y="230" type="curve" smooth="yes"/>
      <point x="168" y="310" type="line" smooth="yes"/>
      <point x="168" y="396"/>
      <point x="234" y="462"/>
      <point x="330" y="462" type="curve" smooth="yes"/>
      <point x="416" y="462"/>
      <point x="482" y="396"/>
      <point x="482" y="280" type="curve" smooth="yes"/>
      <point x="482" y="260" type="line" smooth="yes"/>
      <point x="482" y="135"/>
      <point x="416" y="68"/>
    </contour>
  </outline>
</glyph>
<glyph name="oe" format="2">
  <advance width="1000"/>
  <unicode hex="0153"/>
  <outline>
    <contour>
      <point x="300" y="-10" type="curve" smooth="yes"/>
      <point x="389" y="-10"/>
      <point x="466" y="27"/>
      <point x="509" y="106" type="curve"/>
      <point x="552" y="26"/>
      <point x="629" y="-10"/>
      <point x="720" y="-10" type="curve" smooth="yes"/>
      <point x="832" y="-10"/>
      <point x="924" y="44"/>
      <point x="945" y="145" type="curve" name="hr01"/>
      <point x="859" y="145" type="line"/>
      <point x="840" y="98"/>
      <point x="800" y="70" name="hr02"/>
      <point x="720" y="70" type="curve" smooth="yes"/>
      <point x="641" y="70"/>
      <point x="553" y="115"/>
      <point x="553" y="239" type="curve"/>
      <point x="955" y="239" type="line"/>
      <point x="955" y="295" type="line" smooth="yes"/>
      <point x="955" y="451"/>
      <point x="866" y="540"/>
      <point x="710" y="540" type="curve" smooth="yes"/>
      <point x="623" y="540"/>
      <point x="549" y="504"/>
      <point x="508" y="428" type="curve"/>
      <point x="465" y="503"/>
      <point x="388" y="540"/>
      <point x="300" y="540" type="curve" smooth="yes"/>
      <point x="165" y="540"/>
      <point x="45" y="452"/>
      <point x="45" y="280" type="curve" smooth="yes"/>
      <point x="45" y="260" type="line" smooth="yes"/>
      <point x="45" y="78"/>
      <point x="165" y="-10"/>
    </contour>
    <contour>
      <point x="300" y="70" type="curve" smooth="yes"/>
      <point x="219" y="70"/>
      <point x="135" y="122"/>
      <point x="135" y="260" type="curve" smooth="yes"/>
      <point x="135" y="280" type="line" smooth="yes"/>
      <point x="135" y="408"/>
      <point x="219" y="460"/>
      <point x="300" y="460" type="curve" smooth="yes"/>
      <point x="381" y="460"/>
      <point x="465" y="408"/>
      <point x="465" y="280" type="curve" smooth="yes"/>
      <point x="465" y="260" type="line" smooth="yes"/>
      <point x="465" y="122"/>
      <point x="381" y="70"/>
    </contour>
    <contour>
      <point x="715" y="460" type="curve" smooth="yes"/>
      <point x="801" y="460"/>
      <point x="869" y="420"/>
      <point x="872" y="311" type="curve"/>
      <point x="553" y="311" type="line"/>
      <point x="553" y="415"/>
      <point x="633" y="460"/>
    </contour>
  </outline>
</glyph>
<glyph name="ring" format="2">
  <advance width="270"/>
  <unicode hex="02DA"/>
  <outline>
    <contour>
      <point x="135" y="575" type="curve" smooth="yes"/>
      <point x="199" y="575"/>
      <point x="250" y="620" name="sv01"/>
      <point x="250" y="680" type="curve" smooth="yes"/>
      <point x="250" y="740" name="ih01"/>
      <point x="199" y="785"/>
      <point x="135" y="785" type="curve" smooth="yes"/>
      <point x="71" y="785" name="iv01"/>
      <point x="20" y="740"/>
      <point x="20" y="680" type="curve" smooth="yes" name="sh01"/>
      <point x="20" y="620" name="ih02"/>
      <point x="71" y="575" name="ih03"/>
    </contour>
    <contour>
      <point x="135" y="633" type="curve" smooth="yes"/>
      <point x="107" y="633"/>
      <point x="88" y="652"/>
      <point x="88" y="680" type="curve" smooth="yes"/>
      <point x="88" y="708"/>
      <point x="107" y="727"/>
      <point x="135" y="727" type="curve" smooth="yes"/>
      <point x="163" y="727"/>
      <point x="182" y="708"/>
      <point x="182" y="680" type="curve" smooth="yes"/>
      <point x="182" y="652"/>
      <point x="163" y="633"/>
    </contour>
  </outline>
</glyph>
<glyph name="afii10053" format="2">
  <advance width="680"/>
  <unicode hex="0404"/>
  <outline>
    <contour>
      <point x="355" y="-10" type="curve" smooth="yes"/>
      <point x="496" y="-10" name="iv03"/>
      <point x="609" y="55"/>
      <point x="630" y="210" type="curve" name="sv03"/>
      <point x="530" y="210" type="line"/>
      <point x="518" y="130" name="sv02"/>
      <point x="459" y="74" name="iv02"/>
      <point x="355" y="74" type="curve" smooth="yes"/>
      <point x="270" y="74" name="sv01"/>
      <point x="171" y="127"/>
      <point x="160" y="315" type="curve" name="iv01"/>
      <point x="440" y="315" type="line" name="at01"/>
      <point x="440" y="395" type="line"/>
      <point x="160" y="395" type="line"/>
      <point x="168" y="572" name="ih01"/>
      <point x="263" y="626" name="ih02"/>
      <point x="355" y="626" type="curve" smooth="yes" name="ih03"/>
      <point x="450" y="626"/>
      <point x="511" y="581"/>
      <point x="530" y="490" type="curve" name="hr02"/>
      <point x="630" y="490" type="line"/>
      <point x="614" y="629"/>
      <point x="506" y="710"/>
      <point x="355" y="710" type="curve" smooth="yes"/>
      <point x="199" y="710"/>
      <point x="60" y="614"/>
      <point x="60" y="365" type="curve" smooth="yes"/>
      <point x="60" y="345" type="line" smooth="yes"/>
      <point x="60" y="86"/>
      <point x="199" y="-10"/>
    </contour>
  </outline>
</glyph>
<glyph name="afii10058" format="2">
  <advance width="1055"/>
  <unicode hex="0409"/>
  <outline>
    <contour>
      <point x="55" y="-10" type="curve" smooth="yes"/>
      <point x="180" y="-10"/>
      <point x="239" y="75"/>
      <point x="239" y="520" type="curve" smooth="yes" name="sv01"/>
      <point x="239" y="618" type="line" name="ih01"/>
      <point x="511" y="618" type="line" name="ab02"/>
      <point x="511" y="0" type="line"/>
      <point x="740" y="0" type="line" smooth="yes" name="iv02"/>
      <point x="925" y="0"/>
      <point x="1010" y="85"/>
      <point x="1010" y="210" type="curve" smooth="yes" name="at01"/>
      <point x="1010" y="335"/>
      <point x="925" y="420" name="iv01"/>
      <point x="740" y="420" type="curve" smooth="yes"/>
      <point x="605" y="420" type="line"/>
      <point x="605" y="700" type="line" name="ab01"/>
      <point x="145" y="700" type="line" name="hr01"/>
      <point x="145" y="540" type="line" smooth="yes" name="sh01"/>
      <point x="145" y="145" name="sv03"/>
      <point x="120" y="84"/>
      <point x="40" y="84" type="curve" smooth="yes" name="sv02"/>
      <point x="33" y="84" name="ih02"/>
      <point x="28" y="84" name="ih03"/>
      <point x="25" y="85" type="curve" name="hr01"/>
      <point x="25" y="-7" type="line"/>
      <point x="35" y="-9"/>
      <point x="45" y="-10"/>
    </contour>
    <contour>
      <point x="605" y="82" type="line"/>
      <point x="605" y="338" type="line"/>
      <point x="735" y="338" type="line" smooth="yes"/>
      <point x="868" y="338"/>
      <point x="916" y="291"/>
      <point x="916" y="210" type="curve" smooth="yes"/>
      <point x="916" y="129"/>
      <point x="868" y="82"/>
      <point x="735" y="82" type="curve" smooth="yes"/>
    </contour>
  </outline>
</glyph>
<glyph name="afii10145" format="2">
  <advance width="740"/>
  <unicode hex="040F"/>
  <outline>
    <contour>
      <point x="325" y="-130" type="line" name="hr02"/>
      <point x="415" y="-130" type="line" name="av01"/>
      <point x="415" y="0" type="line" name="hr01"/>
      <point x="640" y="0" type="line" name="ab01"/>
      <point x="640" y="700" type="line"/>
      <point x="546" y="700" type="line" name="at02"/>
      <point x="546" y="82" type="line"/>
      <point x="194" y="82" type="line" name="sv01"/>
      <point x="194" y="700" type="line"/>
      <point x="100" y="700" type="line" name="at01"/>
      <point x="100" y="0" type="line"/>
      <point x="325" y="0" type="line" name="hr02"/>
    </contour>
  </outline>
</glyph>
<glyph name="afii10024" format="2">
  <advance width="960"/>
  <unicode hex="0416"/>
  <outline>
    <contour>
      <point x="30" y="0" type="line"/>
      <point x="138" y="0" type="line" name="ab03"/>
      <point x="363" y="321" type="line"/>
      <point x="433" y="321" type="line" name="sv04"/>
      <point x="433" y="0" type="line"/>
      <point x="527" y="0" type="line" name="ab02"/>
      <point x="527" y="321" type="line"/>
      <point x="597" y="321" type="line" name="sv01"/>
      <point x="820" y="0" type="line"/>
      <point x="930" y="0" type="line" name="ab01"/>
      <point x="672" y="367" type="line" name="iv02"/>
      <point x="920" y="700" type="line"/>
      <point x="818" y="700" type="line" name="at03"/>
      <point x="597" y="399" type="line" name="iv01"/>
      <point x="527" y="399" type="line"/>
      <point x="527" y="700" type="line"/>
      <point x="433" y="700" type="line" name="at02"/>
      <point x="433" y="399" type="line" name="ih01"/>
      <point x="363" y="399" type="line" name="sv03"/>
      <point x="144" y="700" type="line"/>
      <point x="40" y="700" type="line" name="at01"/>
      <point x="288" y="364" type="line" name="sv02"/>
    </contour>
  </outline>
</glyph>
<glyph name="afii10033" format="2">
  <advance width="750"/>
  <unicode hex="041F"/>
  <outline>
    <contour>
      <point x="100" y="0" type="line"/>
      <point x="194" y="0" type="line" name="ab02"/>
      <point x="194" y="618" type="line"/>
      <point x="556" y="618" type="line" name="sv01"/>
      <point x="556" y="0" type="line" name="ih01"/>
      <point x="650" y="0" type="line" name="ab01"/>
      <point x="650" y="700" type="line"/>
      <point x="100" y="700" type="line" name="at01"/>
    </contour>
  </outline>
</glyph>
<glyph name="afii10037" format="2">
  <advance width="670"/>
  <unicode hex="0423"/>
  <outline>
    <contour>
      <point x="205" y="-10" type="curve" smooth="yes"/>
      <point x="304" y="-10"/>
      <point x="349" y="35"/>
      <point x="395" y="137" type="curve" smooth="yes"/>
      <point x="650" y="700" type="line"/>
      <point x="554" y="700" type="line"/>
      <point x="356" y="255" type="line"/>
      <point x="122" y="700" type="line"/>
      <point x="20" y="700" type="line"/>
      <point x="309" y="158" type="line"/>
      <point x="280" y="90"/>
      <point x="262" y="74"/>
      <point x="205" y="74" type="curve" smooth="yes"/>
      <point x="190" y="74"/>
      <point x="176" y="75"/>
      <point x="165" y="76" type="curve"/>
      <point x="165" y="-8" type="line"/>
      <point x="176" y="-9"/>
      <point x="190" y="-10"/>
    </contour>
  </outline>
</glyph>
<glyph name="afii10042" format="2">
  <advance width="970"/>
  <unicode hex="0428"/>
  <outline>
    <contour>
      <point x="100" y="0" type="line"/>
      <point x="870" y="0" type="line" name="ab01"/>
      <point x="870" y="700" type="line"/>
      <point x="776" y="700" type="line" name="at03"/>
      <point x="776" y="82" type="line" name="sv03"/>
      <point x="532" y="82" type="line" name="sv02"/>
      <point x="532" y="700" type="line"/>
      <point x="438" y="700" type="line" name="at02"/>
      <point x="438" y="82" type="line" name="ih01"/>
      <point x="194" y="82" type="line" name="sv01"/>
      <point x="194" y="700" type="line"/>
      <point x="100" y="700" type="line" name="at01"/>
    </contour>
  </outline>
</glyph>
<glyph name="afii10046" format="2">
  <advance width="655"/>
  <unicode hex="042C"/>
  <outline>
    <contour>
      <point x="100" y="0" type="line"/>
      <point x="340" y="0" type="line" smooth="yes" name="ab01"/>
      <point x="525" y="0"/>
      <point x="610" y="85" name="sh01"/>
      <point x="610" y="210" type="curve" smooth="yes"/>
      <point x="610" y="335"/>
      <point x="525" y="420" name="at01"/>
      <point x="340" y="420" type="curve" smooth="yes"/>
      <point x="194" y="420" type="line"/>
      <point x="194" y="700" type="line" name="sv01"/>
      <point x="100" y="700" type="line"/>
    </contour>
    <contour>
      <point x="194" y="82" type="line" name="ih01"/>
      <point x="194" y="338" type="line" name="ih02"/>
      <point x="335" y="338" type="line" smooth="yes" name="ih03"/>
      <point x="468" y="338"/>
      <point x="516" y="291"/>
      <point x="516" y="210" type="curve" smooth="yes"/>
      <point x="516" y="129"/>
      <point x="468" y="82"/>
      <point x="335" y="82" type="curve" smooth="yes"/>
    </contour>
  </outline>
</glyph>
<glyph name="afii10047" format="2">
  <advance width="680"/>
  <unicode hex="042D"/>
  <outline>
    <contour>
      <point x="325" y="-10" type="curve" smooth="yes"/>
      <point x="481" y="-10"/>
      <point x="620" y="86"/>
      <point x="620" y="345" type="curve" smooth="yes" name="at01"/>
      <point x="620" y="365" type="line" smooth="yes" name="iv03"/>
      <point x="620" y="614"/>
      <point x="481" y="710" name="sv03"/>
      <point x="325" y="710" type="curve" smooth="yes" name="iv02"/>
      <point x="174" y="710"/>
      <point x="66" y="629"/>
      <point x="50" y="490" type="curve" name="sv02"/>
      <point x="150" y="490" type="line" name="sv01"/>
      <point x="169" y="581"/>
      <point x="230" y="626" name="iv01"/>
      <point x="325" y="626" type="curve" smooth="yes" name="ih01"/>
      <point x="418" y="626" name="ih02"/>
      <point x="511" y="572" name="ih03"/>
      <point x="519" y="395" type="curve"/>
      <point x="240" y="395" type="line"/>
      <point x="240" y="315" type="line"/>
      <point x="519" y="315" type="line"/>
      <point x="511" y="127"/>
      <point x="408" y="74"/>
      <point x="325" y="74" type="curve" smooth="yes"/>
      <point x="221" y="74"/>
      <point x="162" y="130"/>
      <point x="150" y="210" type="curve" name="hr01"/>
      <point x="50" y="210" type="line"/>
      <point x="71" y="55"/>
      <point x="184" y="-10"/>
    </contour>
  </outline>
</glyph>
<glyph name="afii10048" format="2">
  <advance width="950"/>
  <unicode hex="042E"/>
  <outline>
    <contour>
      <point x="100" y="0" type="line"/>
      <point x="194" y="0" type="line"/>
      <point x="194" y="319" type="line"/>
      <point x="326" y="319" type="line"/>
      <point x="334" y="83"/>
      <point x="456" y="-10" name="hr01"/>
      <point x="605" y="-10" type="curve" smooth="yes"/>
      <point x="761" y="-10"/>
      <point x="890" y="90"/>
      <point x="890" y="345" type="curve" smooth="yes"/>
      <point x="890" y="365" type="line" smooth="yes"/>
      <point x="890" y="610"/>
      <point x="761" y="710"/>
      <point x="605" y="710" type="curve" smooth="yes"/>
      <point x="458" y="710"/>
      <point x="338" y="620"/>
      <point x="327" y="401" type="curve"/>
      <point x="194" y="401" type="line"/>
      <point x="194" y="700" type="line" name="hr01"/>
      <point x="100" y="700" type="line"/>
    </contour>
    <contour>
      <point x="605" y="74" type="curve" smooth="yes" name="hr03"/>
      <point x="505" y="74"/>
      <point x="420" y="150"/>
      <point x="420" y="345" type="curve" smooth="yes"/>
      <point x="420" y="365" type="line" smooth="yes"/>
      <point x="420" y="549"/>
      <point x="505" y="626"/>
      <point x="605" y="626" type="curve" smooth="yes"/>
      <point x="705" y="626"/>
      <point x="790" y="549"/>
      <point x="790" y="365" type="curve" smooth="yes"/>
      <point x="790" y="345" type="line" smooth="yes"/>
      <point x="790" y="150"/>
      <point x="705" y="74"/>
    </contour>
  </outline>
</glyph>
<glyph name="afii10049" format="2">
  <advance width="685"/>
  <unicode hex="042F"/>
  <outline>
    <contour>
      <point x="45" y="0" type="line"/>
      <point x="151" y="0" type="line" name="ab02"/>
      <point x="329" y="282" type="line"/>
      <point x="491" y="282" type="line" name="sv01"/>
      <point x="491" y="0" type="line"/>
      <point x="585" y="0" type="line" name="ab01"/>
      <point x="585" y="700" type="line"/>
      <point x="340" y="700" type="line" smooth="yes" name="ih01"/>
      <point x="165" y="700"/>
      <point x="75" y="610" name="sv02"/>
      <point x="75" y="490" type="curve" smooth="yes"/>
      <point x="75" y="398"/>
      <point x="129" y="323" name="sv03"/>
      <point x="237" y="294" type="curve" name="iv01"/>
    </contour>
    <contour>
      <point x="169" y="490" type="curve" smooth="yes" name="sh01"/>
      <point x="169" y="566"/>
      <point x="221" y="618" name="ih02"/>
      <point x="350" y="618" type="curve" smooth="yes" name="ih03"/>
      <point x="491" y="618" type="line"/>
      <point x="491" y="362" type="line"/>
      <point x="350" y="362" type="line" smooth="yes"/>
      <point x="221" y="362"/>
      <point x="169" y="414"/>
    </contour>
  </outline>
</glyph>
<glyph name="afii10069" format="2">
  <advance width="605"/>
  <unicode hex="0434"/>
  <outline>
    <contour>
      <point x="20" y="-125" type="line"/>
      <point x="104" y="-125" type="line"/>
      <point x="104" y="0" type="line" name="hr01"/>
      <point x="496" y="0" type="line"/>
      <point x="496" y="-125" type="line" name="hr02"/>
      <point x="580" y="-125" type="line"/>
      <point x="580" y="78" type="line"/>
      <point x="505" y="78" type="line" name="hr03"/>
      <point x="505" y="530" type="line"/>
      <point x="135" y="530" type="line"/>
      <point x="135" y="390" type="line" smooth="yes"/>
      <point x="135" y="252"/>
      <point x="114" y="118"/>
      <point x="85" y="78" type="curve"/>
      <point x="20" y="78" type="line"/>
    </contour>
    <contour>
      <point x="175" y="78" type="line"/>
      <point x="205" y="146"/>
      <point x="221" y="258"/>
      <point x="221" y="370" type="curve" smooth="yes"/>
      <point x="221" y="452" type="line"/>
      <point x="417" y="452" type="line"/>
      <point x="417" y="78" type="line"/>
    </contour>
  </outline>
</glyph>
<glyph name="afii10074" format="2">
  <advance width="610"/>
  <unicode hex="0438"/>
  <outline>
    <contour>
      <point x="80" y="0" type="line"/>
      <point x="168" y="0" type="line" name="ab02"/>
      <point x="442" y="400" type="line" name="iv02"/>
      <point x="442" y="0" type="line"/>
      <point x="530" y="0" type="line" name="ab01"/>
      <point x="530" y="530" type="line"/>
      <point x="442" y="530" type="line" name="at02"/>
      <point x="168" y="130" type="line" name="iv01"/>
      <point x="168" y="530" type="line" name="ih01"/>
      <point x="80" y="530" type="line" name="at01"/>
    </contour>
  </outline>
</glyph>
<glyph name="afii10086" format="2">
  <advance width="740"/>
  <unicode hex="0444"/>
  <outline>
    <contour>
      <point x="326" y="-200" type="line"/>
      <point x="414" y="-200" type="line" name="ab01"/>
      <point x="414" y="-10" type="line" name="ab02"/>
      <point x="598" y="-10"/>
      <point x="695" y="87"/>
      <point x="695" y="259" type="curve" smooth="yes" name="at03"/>
      <point x="695" y="279" type="line" smooth="yes"/>
      <point x="695" y="443" name="at01"/>
      <point x="598" y="540" name="at02"/>
      <point x="414" y="540" type="curve"/>
      <point x="414" y="700" type="line"/>
      <point x="326" y="700" type="line" name="sh01"/>
      <point x="326" y="540" type="line"/>
      <point x="142" y="540" name="sv01"/>
      <point x="45" y="443" name="ih01"/>
      <point x="45" y="279" type="curve" smooth="yes"/>
      <point x="45" y="259" type="line" smooth="yes"/>
      <point x="45" y="87" name="sv02"/>
      <point x="142" y="-10" name="sh02"/>
      <point x="326" y="-10" type="curve"/>
    </contour>
    <contour>
      <point x="605" y="259" type="line" name="ih02"/>
      <point x="605" y="130" name="ih03"/>
      <point x="545" y="70"/>
      <point x="413" y="70" type="curve"/>
      <point x="413" y="460" type="line"/>
      <point x="545" y="460"/>
      <point x="605" y="400"/>
      <point x="605" y="279" type="curve" smooth="yes"/>
    </contour>
    <contour>
      <point x="135" y="279" type="line"/>
      <point x="135" y="400"/>
      <point x="195" y="460"/>
      <point x="327" y="460" type="curve"/>
      <point x="327" y="70" type="line"/>
      <point x="195" y="70"/>
      <point x="135" y="130"/>
      <point x="135" y="259" type="curve" smooth="yes"/>
    </contour>
  </outline>
</glyph>
<glyph name="afii10088" format="2">
  <advance width="620"/>
  <unicode hex="0446"/>
  <outline>
    <contour>
      <point x="511" y="-125" type="line" name="hr02"/>
      <point x="595" y="-125" type="line" name="av01"/>
      <point x="595" y="78" type="line" name="sv03"/>
      <point x="510" y="78" type="line" name="sv02"/>
      <point x="510" y="530" type="line"/>
      <point x="422" y="530" type="line" name="at02"/>
      <point x="422" y="78" type="line" name="ih01"/>
      <point x="168" y="78" type="line" name="sv01"/>
      <point x="168" y="530" type="line"/>
      <point x="80" y="530" type="line" name="at01"/>
      <point x="80" y="0" type="line" name="hr01"/>
      <point x="511" y="0" type="line" name="hr02"/>
    </contour>
  </outline>
</glyph>
<glyph name="afii10089" format="2">
  <advance width="555"/>
  <unicode hex="0447"/>
  <outline>
    <contour>
      <point x="387" y="0" type="line"/>
      <point x="475" y="0" type="line" name="ab01"/>
      <point x="475" y="530" type="line"/>
      <point x="387" y="530" type="line" name="at02"/>
      <point x="387" y="283" type="line"/>
      <point x="370" y="270" name="ih01"/>
      <point x="325" y="255"/>
      <point x="265" y="255" type="curve" smooth="yes"/>
      <point x="177" y="255" name="at01"/>
      <point x="143" y="284"/>
      <point x="143" y="375" type="curve" smooth="yes" name="sv01"/>
      <point x="143" y="530" type="line" name="iv01"/>
      <point x="55" y="530" type="line" name="ih02"/>
      <point x="55" y="360" type="line" smooth="yes" name="ih03"/>
      <point x="55" y="225"/>
      <point x="126" y="175"/>
      <point x="250" y="175" type="curve" smooth="yes"/>
      <point x="315" y="175"/>
      <point x="356" y="192"/>
      <point x="387" y="211" type="curve"/>
    </contour>
  </outline>
</glyph>
<glyph name="afii10090" format="2">
  <advance width="810"/>
  <unicode hex="0448"/>
  <outline>
    <contour>
      <point x="80" y="0" type="line"/>
      <point x="730" y="0" type="line" name="ab01"/>
      <point x="730" y="530" type="line"/>
      <point x="642" y="530" type="line" name="at03"/>
      <point x="642" y="78" type="line" name="sv03"/>
      <point x="449" y="78" type="line" name="sv02"/>
      <point x="449" y="530" type="line"/>
      <point x="361" y="530" type="line" name="at02"/>
      <point x="361" y="78" type="line" name="ih01"/>
      <point x="168" y="78" type="line" name="sv01"/>
      <point x="168" y="530" type="line"/>
      <point x="80" y="530" type="line" name="at01"/>
    </contour>
  </outline>
</glyph>
<glyph name="afii10092" format="2">
  <advance width="605"/>
  <unicode hex="044A"/>
  <outline>
    <contour>
      <point x="160" y="0" type="line"/>
      <point x="375" y="0" type="line" smooth="yes" name="ab01"/>
      <point x="508" y="0"/>
      <point x="570" y="63" name="iv01"/>
      <point x="570" y="164" type="curve" smooth="yes"/>
      <point x="570" y="268" name="ih01"/>
      <point x="508" y="330" name="at01"/>
      <point x="375" y="330" type="curve" smooth="yes"/>
      <point x="248" y="330" type="line" name="sv01"/>
      <point x="248" y="530" type="line"/>
      <point x="20" y="530" type="line" name="sh01"/>
      <point x="20" y="452" type="line" name="sv03"/>
      <point x="160" y="452" type="line" name="hr01"/>
    </contour>
    <contour>
      <point x="248" y="78" type="line" name="sv02"/>
      <point x="248" y="252" type="line" name="ih02"/>
      <point x="370" y="252" type="line" smooth="yes" name="ih03"/>
      <point x="453" y="252"/>
      <point x="482" y="222"/>
      <point x="482" y="165" type="curve" smooth="yes"/>
      <point x="482" y="108"/>
      <point x="453" y="78"/>
      <point x="370" y="78" type="curve" smooth="yes"/>
    </contour>
  </outline>
</glyph>
<glyph name="afii10096" format="2">
  <advance width="775"/>
  <unicode hex="044E"/>
  <outline>
    <contour>
      <point x="80" y="0" type="line"/>
      <point x="168" y="0" type="line"/>
      <point x="168" y="231" type="line"/>
      <point x="243" y="231" type="line"/>
      <point x="254" y="67"/>
      <point x="359" y="-10" name="hr01"/>
      <point x="485" y="-10" type="curve" smooth="yes"/>
      <point x="620" y="-10"/>
      <point x="730" y="78"/>
      <point x="730" y="260" type="curve" smooth="yes"/>
      <point x="730" y="280" type="line" smooth="yes"/>
      <point x="730" y="452"/>
      <point x="620" y="540"/>
      <point x="485" y="540" type="curve" smooth="yes"/>
      <point x="361" y="540"/>
      <point x="254" y="462"/>
      <point x="243" y="309" type="curve"/>
      <point x="168" y="309" type="line"/>
      <point x="168" y="530" type="line" name="hr01"/>
      <point x="80" y="530" type="line"/>
    </contour>
    <contour>
      <point x="485" y="70" type="curve" smooth="yes" name="hr03"/>
      <point x="405" y="70"/>
      <point x="330" y="122"/>
      <point x="330" y="260" type="curve" smooth="yes"/>
      <point x="330" y="280" type="line" smooth="yes"/>
      <point x="330" y="408"/>
      <point x="405" y="460"/>
      <point x="485" y="460" type="curve" smooth="yes"/>
      <point x="565" y="460"/>
      <point x="640" y="408"/>
      <point x="640" y="280" type="curve" smooth="yes"/>
      <point x="640" y="260" type="line" smooth="yes"/>
      <point x="640" y="122"/>
      <point x="565" y="70"/>
    </contour>
  </outline>
</glyph>
<glyph name="afii10107" format="2">
  <advance width="875"/>
  <unicode hex="045A"/>
  <outline>
    <contour>
      <point x="80" y="0" type="line"/>
      <point x="168" y="0" type="line" name="ab02"/>
      <point x="168" y="246" type="line" name="sv01"/>
      <point x="435" y="246" type="line"/>
      <point x="435" y="0" type="line"/>
      <point x="650" y="0" type="line" smooth="yes" name="ab01"/>
      <point x="778" y="0"/>
      <point x="840" y="62"/>
      <point x="840" y="162" type="curve" smooth="yes" name="iv02"/>
      <point x="840" y="262"/>
      <point x="778" y="324" name="at02"/>
      <point x="650" y="324" type="curve" smooth="yes" name="ih01"/>
      <point x="523" y="324" type="line" name="iv01"/>
      <point x="523" y="530" type="line"/>
      <point x="435" y="530" type="line" name="at01"/>
      <point x="435" y="324" type="line"/>
      <point x="168" y="324" type="line" name="sh01"/>
      <point x="168" y="530" type="line"/>
      <point x="80" y="530" type="line"/>
    </contour>
    <contour>
      <point x="523" y="78" type="line" name="sv02"/>
      <point x="523" y="246" type="line" name="ih02"/>
      <point x="645" y="246" type="line" smooth="yes" name="ih03"/>
      <point x="722" y="246"/>
      <point x="752" y="217"/>
      <point x="752" y="162" type="curve" smooth="yes"/>
      <point x="752" y="107"/>
      <point x="722" y="78"/>
      <point x="645" y="78" type="curve" smooth="yes"/>
    </contour>
  </outline>
</glyph>
<glyph name="afii10108" format="2">
  <advance width="620"/>
  <unicode hex="045B"/>
  <outline>
    <contour>
      <point x="110" y="0" type="line"/>
      <point x="198" y="0" type="line"/>
      <point x="198" y="170" type="line" smooth="yes"/>
      <point x="198" y="245"/>
      <point x="242" y="320"/>
      <point x="342" y="320" type="curve" smooth="yes"/>
      <point x="434" y="320"/>
      <point x="472" y="269"/>
      <point x="472" y="170" type="curve" smooth="yes"/>
      <point x="472" y="0" type="line"/>
      <point x="560" y="0" type="line"/>
      <point x="560" y="190" type="line" smooth="yes"/>
      <point x="560" y="327"/>
      <point x="496" y="400"/>
      <point x="368" y="400" type="curve" smooth="yes"/>
      <point x="284" y="400"/>
      <point x="225" y="351"/>
      <point x="198" y="295" type="curve"/>
      <point x="198" y="456" type="line"/>
      <point x="430" y="456" type="line"/>
      <point x="430" y="530" type="line"/>
      <point x="198" y="530" type="line"/>
      <point x="198" y="700" type="line"/>
      <point x="110" y="700" type="line"/>
      <point x="110" y="530" type="line"/>
      <point x="20" y="530" type="line"/>
      <point x="20" y="456" type="line"/>
      <point x="110" y="456" type="line"/>
    </contour>
  </outline>
</glyph>
<glyph name="afii10193" format="2">
  <advance width="590"/>
  <unicode hex="045F"/>
  <outline>
    <contour>
      <point x="252" y="-125" type="line" name="hr02"/>
      <point x="338" y="-125" type="line" name="av01"/>
      <point x="338" y="0" type="line" name="hr01"/>
      <point x="510" y="0" type="line" name="ab01"/>
      <point x="510" y="530" type="line"/>
      <point x="422" y="530" type="line" name="at02"/>
      <point x="422" y="78" type="line" name="sv02"/>
      <point x="168" y="78" type="line" name="sv01"/>
      <point x="168" y="530" type="line"/>
      <point x="80" y="530" type="line" name="at01"/>
      <point x="80" y="0" type="line"/>
      <point x="252" y="0" type="line" name="hr02"/>
    </contour>
  </outline>
</glyph>
<glyph name="afii10050" format="2">
  <advance width="560"/>
  <unicode hex="0490"/>
  <outline>
    <contour>
      <point x="100" y="0" type="line"/>
      <point x="194" y="0" type="line" name="ab01"/>
      <point x="194" y="618" type="line" name="ih01"/>
      <point x="540" y="618" type="line" name="sv02"/>
      <point x="540" y="830" type="line" name="hr01"/>
      <point x="450" y="830" type="line" name="sv01"/>
      <point x="450" y="700" type="line" name="hr02"/>
      <point x="100" y="700" type="line" name="at01"/>
    </contour>
  </outline>
</glyph>
<glyph name="afii10098" format="2">
  <advance width="460"/>
  <unicode hex="0491"/>
  <outline>
    <contour>
      <point x="80" y="0" type="line"/>
      <point x="168" y="0" type="line" name="ab01"/>
      <point x="168" y="452" type="line" name="ih01"/>
      <point x="440" y="452" type="line" name="sv02"/>
      <point x="440" y="655" type="line" name="hr01"/>
      <point x="356" y="655" type="line" name="sv01"/>
      <point x="356" y="530" type="line" name="hr02"/>
      <point x="80" y="530" type="line" name="at01"/>
    </contour>
  </outline>
</glyph>
<glyph name="cyrgebar" format="2">
  <advance width="495"/>
  <unicode hex="0493"/>
  <outline>
    <contour>
      <point x="35" y="231" type="line"/>
      <point x="115" y="231" type="line" name="sv04"/>
      <point x="115" y="0" type="line"/>
      <point x="203" y="0" type="line" name="ab01"/>
      <point x="203" y="231" type="line"/>
      <point x="380" y="231" type="line" name="sv03"/>
      <point x="380" y="309" type="line" name="iv01"/>
      <point x="203" y="309" type="line"/>
      <point x="203" y="452" type="line" name="ih01"/>
      <point x="475" y="452" type="line" name="sv02"/>
      <point x="475" y="530" type="line"/>
      <point x="115" y="530" type="line" name="at01"/>
      <point x="115" y="309" type="line"/>
      <point x="35" y="309" type="line" name="sv01"/>
    </contour>
  </outline>
  <guideline angle="0" x="0" y="259"/>
</glyph>
<glyph name="cyrgehook" format="2">
  <advance width="559"/>
  <unicode hex="0495"/>
  <outline>
    <contour>
      <point x="80" y="0" type="line"/>
      <point x="168" y="0" type="line" name="ab01"/>
      <point x="168" y="247" type="line"/>
      <point x="187" y="260" name="sv03"/>
      <point x="229" y="275"/>
      <point x="289" y="275" type="curve" smooth="yes"/>
      <point x="377" y="275" name="sv02"/>
      <point x="411" y="246" name="hr01"/>
      <point x="411" y="155" type="curve" smooth="yes" name="ih01"/>
      <point x="411" y="0" type="line" smooth="yes" name="ab02"/>
      <point x="411" y="-106"/>
      <point x="392" y="-130"/>
      <point x="324" y="-130" type="curve" smooth="yes" name="iv01"/>
      <point x="313" y="-130" name="iv02"/>
      <point x="300" y="-130"/>
      <point x="289" y="-127" type="curve" name="sv01"/>
      <point x="289" y="-207" type="line"/>
      <point x="304" y="-210" name="at01"/>
      <point x="324" y="-210" name="ih02"/>
      <point x="339" y="-210" type="curve" smooth="yes" name="ih03"/>
      <point x="456" y="-210"/>
      <point x="499" y="-165"/>
      <point x="499" y="0" type="curve" smooth="yes"/>
      <point x="499" y="170" type="line" smooth="yes"/>
      <point x="499" y="305"/>
      <point x="428" y="355"/>
      <point x="304" y="355" type="curve" smooth="yes" name="hr02"/>
      <point x="239" y="355"/>
      <point x="199" y="338"/>
      <point x="168" y="319" type="curve" name="hr01"/>
      <point x="168" y="452" type="line"/>
      <point x="440" y="452" type="line"/>
      <point x="440" y="530" type="line"/>
      <point x="80" y="530" type="line"/>
    </contour>
  </outline>
  <guideline angle="0" x="0" y="275"/>
</glyph>
<glyph name="uni0496" format="2">
  <advance width="976"/>
  <unicode hex="0496"/>
  <anchor x="861" y="0" name="bottomright"/>
  <anchor x="480" y="700" name="top"/>
  <outline>
    <contour>
      <point x="946" y="-130" type="line" name="hr02"/>
      <point x="946" y="82" type="line"/>
      <point x="872" y="82" type="line" name="sv05"/>
      <point x="672" y="367" type="line" name="iv02"/>
      <point x="920" y="700" type="line"/>
      <point x="818" y="700" type="line" name="at03"/>
      <point x="597" y="399" type="line" name="iv01"/>
      <point x="527" y="399" type="line"/>
      <point x="527" y="700" type="line"/>
      <point x="433" y="700" type="line" name="at02"/>
      <point x="433" y="399" type="line" name="hr01"/>
      <point x="363" y="399" type="line" name="sv04"/>
      <point x="144" y="700" type="line"/>
      <point x="40" y="700" type="line" name="at01"/>
      <point x="288" y="364" type="line" name="sv03"/>
      <point x="30" y="0" type="line" name="hr01"/>
      <point x="138" y="0" type="line" name="ab03"/>
      <point x="363" y="321" type="line"/>
      <point x="433" y="321" type="line" name="sv02"/>
      <point x="433" y="0" type="line"/>
      <point x="527" y="0" type="line" name="ab02"/>
      <point x="527" y="321" type="line" name="ih01"/>
      <point x="597" y="321" type="line" name="sv01"/>
      <point x="820" y="0" type="line"/>
      <point x="856" y="0" type="line" name="ab01"/>
      <point x="856" y="-130" type="line" name="av01"/>
    </contour>
  </outline>
</glyph>
<glyph name="cyrkadesc" format="2">
  <advance width="583"/>
  <unicode hex="049B"/>
  <outline>
    <contour>
      <point x="558" y="-125" type="line" name="hr02"/>
      <point x="558" y="78" type="line"/>
      <point x="482" y="78" type="line" name="sv02"/>
      <point x="310" y="276" type="line" name="ih01"/>
      <point x="540" y="530" type="line"/>
      <point x="436" y="530" type="line" name="at02"/>
      <point x="238" y="308" type="line" name="hr01"/>
      <point x="168" y="308" type="line"/>
      <point x="168" y="530" type="line"/>
      <point x="80" y="530" type="line" name="at01"/>
      <point x="80" y="0" type="line" name="hr01"/>
      <point x="168" y="0" type="line" name="ab02"/>
      <point x="168" y="232" type="line"/>
      <point x="238" y="232" type="line" name="sv01"/>
      <point x="438" y="0" type="line"/>
      <point x="474" y="0" type="line" name="ab01"/>
      <point x="474" y="-125" type="line" name="av01"/>
    </contour>
  </outline>
  <guideline angle="0" x="0" y="0"/>
</glyph>
<glyph name="cyrEnGe" format="2">
  <advance width="1026"/>
  <unicode hex="04A4"/>
  <outline>
    <contour>
      <point x="194" y="0" type="line"/>
      <point x="194" y="319" type="line"/>
      <point x="566" y="319" type="line" name="sv02"/>
      <point x="566" y="0" type="line"/>
      <point x="660" y="0" type="line" name="ab02"/>
      <point x="660" y="618" type="line"/>
      <point x="1006" y="618" type="line" name="sv01"/>
      <point x="1006" y="700" type="line"/>
      <point x="566" y="700" type="line" name="at02"/>
      <point x="566" y="401" type="line" name="ih01"/>
      <point x="194" y="401" type="line"/>
      <point x="194" y="700" type="line"/>
      <point x="100" y="700" type="line" name="at01"/>
      <point x="100" y="0" type="line" name="ab01"/>
    </contour>
  </outline>
  <guideline angle="0" x="0" y="401"/>
  <guideline angle="0" x="0" y="319"/>
</glyph>
<glyph name="uni04AF" format="2">
  <advance width="560"/>
  <unicode hex="04AF"/>
  <outline>
    <contour>
      <point x="333" y="-230" type="line"/>
      <point x="333" y="-16" type="line" name="sv01"/>
      <point x="540" y="530" type="line"/>
      <point x="446" y="530" type="line" name="at02"/>
      <point x="290" y="90" type="line" name="ih01"/>
      <point x="118" y="530" type="line"/>
      <point x="20" y="530" type="line" name="at01"/>
      <point x="245" y="-11" type="line" name="ab01"/>
      <point x="245" y="-230" type="line" name="av01"/>
    </contour>
  </outline>
</glyph>
<glyph name="cyrstraightUbar" format="2">
  <advance width="599"/>
  <unicode hex="04B0"/>
  <outline>
    <contour>
      <point x="268" y="0" type="line"/>
      <point x="362" y="0" type="line" name="ab01"/>
      <point x="362" y="219" type="line"/>
      <point x="497" y="219" type="line" name="sv03"/>
      <point x="497" y="301" type="line"/>
      <point x="364" y="301" type="line" name="sv02"/>
      <point x="589" y="700" type="line"/>
      <point x="486" y="700" type="line" name="at02"/>
      <point x="314" y="394" type="line" name="ih01"/>
      <point x="128" y="700" type="line"/>
      <point x="21" y="700" type="line" name="at01"/>
      <point x="265" y="301" type="line" name="iv01"/>
      <point x="122" y="301" type="line"/>
      <point x="122" y="219" type="line"/>
      <point x="268" y="219" type="line" name="sv01"/>
    </contour>
  </outline>
  <guideline angle="0" x="0" y="219"/>
</glyph>
<glyph name="cyrHadesc" format="2">
  <advance width="684"/>
  <unicode hex="04B2"/>
  <outline>
    <contour>
      <point x="654" y="-130" type="line" name="hr02"/>
      <point x="654" y="82" type="line"/>
      <point x="574" y="82" type="line" name="sv01"/>
      <point x="384" y="359" type="line"/>
      <point x="620" y="700" type="line"/>
      <point x="520" y="700" type="line" name="hr01"/>
      <point x="331" y="429" type="line" name="ih01"/>
      <point x="144" y="700" type="line"/>
      <point x="40" y="700" type="line" name="at01"/>
      <point x="277" y="357" type="line"/>
      <point x="30" y="0" type="line" name="hr01"/>
      <point x="132" y="0" type="line" name="ab02"/>
      <point x="329" y="288" type="line" name="iv01"/>
      <point x="524" y="0" type="line"/>
      <point x="564" y="0" type="line" name="ab01"/>
      <point x="564" y="-130" type="line" name="av01"/>
    </contour>
  </outline>
  <guideline angle="0" x="0" y="0"/>
</glyph>
<glyph name="cyrChedesc" format="2">
  <advance width="695"/>
  <unicode hex="04B6"/>
  <outline>
    <contour>
      <point x="575" y="0" type="line"/>
      <point x="575" y="-130" type="line" name="hr01"/>
      <point x="665" y="-130" type="line"/>
      <point x="665" y="82" type="line"/>
      <point x="570" y="82" type="line"/>
      <point x="570" y="700" type="line"/>
      <point x="476" y="700" type="line"/>
      <point x="476" y="394" type="line"/>
      <point x="441" y="371"/>
      <point x="389" y="347"/>
      <point x="305" y="347" type="curve" smooth="yes"/>
      <point x="197" y="347"/>
      <point x="154" y="390"/>
      <point x="154" y="495" type="curve" smooth="yes"/>
      <point x="154" y="700" type="line"/>
      <point x="60" y="700" type="line"/>
      <point x="60" y="495" type="line" smooth="yes"/>
      <point x="60" y="334"/>
      <point x="131" y="263"/>
      <point x="295" y="263" type="curve" smooth="yes"/>
      <point x="376" y="263"/>
      <point x="441" y="285"/>
      <point x="476" y="308" type="curve" name="hr01"/>
      <point x="476" y="0" type="line" name="hr02"/>
    </contour>
  </outline>
</glyph>
<glyph name="cyrchevertbar" format="2">
  <advance width="555"/>
  <unicode hex="04B9"/>
  <anchor x="269" y="530" name="top"/>
  <outline>
    <contour>
      <point x="387" y="0" type="line"/>
      <point x="475" y="0" type="line" name="ab01"/>
      <point x="475" y="530" type="line"/>
      <point x="387" y="530" type="line" name="at02"/>
      <point x="387" y="309" type="line"/>
      <point x="374" y="298" name="iv01"/>
      <point x="343" y="287" name="sv04"/>
      <point x="300" y="283" type="curve"/>
      <point x="300" y="374" type="line" name="sv03"/>
      <point x="225" y="374" type="line"/>
      <point x="225" y="284" type="line"/>
      <point x="166" y="293" name="at01"/>
      <point x="143" y="325"/>
      <point x="143" y="401" type="curve" smooth="yes" name="sv02"/>
      <point x="143" y="530" type="line"/>
      <point x="55" y="530" type="line" name="sv01"/>
      <point x="55" y="386" type="line" smooth="yes" name="ih01"/>
      <point x="55" y="259" name="iv02"/>
      <point x="117" y="210" name="ih02"/>
      <point x="225" y="202" type="curve" name="ih03"/>
      <point x="225" y="121" type="line"/>
      <point x="300" y="121" type="line"/>
      <point x="300" y="205" type="line"/>
      <point x="339" y="212"/>
      <point x="364" y="222"/>
      <point x="387" y="237" type="curve"/>
    </contour>
  </outline>
  <guideline angle="0" x="0" y="232"/>
</glyph>
<glyph name="uni04BA" format="2">
  <advance width="655"/>
  <unicode hex="04BA"/>
  <outline>
    <contour>
      <point x="100" y="700" type="line"/>
      <point x="100" y="0" type="line"/>
      <point x="194" y="0" type="line"/>
      <point x="194" y="329" type="line"/>
      <point x="229" y="352"/>
      <point x="281" y="376"/>
      <point x="364" y="376" type="curve" smooth="yes"/>
      <point x="473" y="376"/>
      <point x="516" y="333"/>
      <point x="516" y="228" type="curve" smooth="yes"/>
      <point x="516" y="0" type="line"/>
      <point x="610" y="0" type="line"/>
      <point x="610" y="228" type="line" smooth="yes"/>
      <point x="610" y="389"/>
      <point x="539" y="460"/>
      <point x="382" y="460" type="curve" smooth="yes"/>
      <point x="294" y="460"/>
      <point x="229" y="438"/>
      <point x="194" y="415" type="curve"/>
      <point x="194" y="700" type="line"/>
    </contour>
  </outline>
</glyph>
<glyph name="uni04BB" format="2">
  <advance width="615"/>
  <unicode hex="04BB"/>
  <outline>
    <contour>
      <point x="168" y="0" type="line"/>
      <point x="168" y="310" type="line" smooth="yes"/>
      <point x="168" y="385" name="ih01"/>
      <point x="212" y="460"/>
      <point x="317" y="460" type="curve" smooth="yes"/>
      <point x="414" y="460" name="ab02"/>
      <point x="452" y="410"/>
      <point x="452" y="310" type="curve" smooth="yes" name="at01"/>
      <point x="452" y="0" type="line" name="iv01"/>
      <point x="540" y="0" type="line"/>
      <point x="540" y="330" type="line" smooth="yes" name="hr01"/>
      <point x="540" y="467" name="ab01"/>
      <point x="476" y="540" name="ih02"/>
      <point x="343" y="540" type="curve" smooth="yes" name="ih03"/>
      <point x="254" y="540"/>
      <point x="195" y="491"/>
      <point x="168" y="435" type="curve"/>
      <point x="168" y="700" type="line" name="hr01"/>
      <point x="80" y="700" type="line"/>
      <point x="80" y="0" type="line"/>
    </contour>
  </outline>
</glyph>
<glyph name="cyrenhook" format="2">
  <advance width="610"/>
  <unicode hex="04C8"/>
  <outline>
    <contour>
      <point x="80" y="0" type="line"/>
      <point x="168" y="0" type="line" name="ab01"/>
      <point x="168" y="231" type="line"/>
      <point x="442" y="231" type="line" name="sv02"/>
      <point x="442" y="0" type="line" smooth="yes"/>
      <point x="442" y="-85" name="sv01"/>
      <point x="427" y="-122"/>
      <point x="378" y="-122" type="curve" smooth="yes" name="ih01"/>
      <point x="369" y="-122" name="ab02"/>
      <point x="359" y="-121"/>
      <point x="347" y="-118" type="curve" name="hr01"/>
      <point x="347" y="-195" type="line" name="hr02"/>
      <point x="365" y="-200" name="iv01"/>
      <point x="383" y="-202"/>
      <point x="401" y="-202" type="curve" smooth="yes"/>
      <point x="485" y="-202" name="at01"/>
      <point x="530" y="-138" name="ih02"/>
      <point x="530" y="-25" type="curve" smooth="yes" name="hr01"/>
      <point x="530" y="530" type="line"/>
      <point x="442" y="530" type="line" name="hr02"/>
      <point x="442" y="309" type="line"/>
      <point x="168" y="309" type="line"/>
      <point x="168" y="530" type="line"/>
      <point x="80" y="530" type="line"/>
    </contour>
  </outline>
</glyph>
<glyph name="cyrChedescleft" format="2">
  <advance width="670"/>
  <unicode hex="04CB"/>
  <outline>
    <contour>
      <point x="381" y="-130" type="line" name="hr02"/>
      <point x="471" y="-130" type="line"/>
      <point x="471" y="0" type="line" name="hr01"/>
      <point x="570" y="0" type="line"/>
      <point x="570" y="700" type="line"/>
      <point x="476" y="700" type="line"/>
      <point x="476" y="394" type="line"/>
      <point x="441" y="371"/>
      <point x="389" y="347"/>
      <point x="305" y="347" type="curve" smooth="yes"/>
      <point x="197" y="347"/>
      <point x="154" y="390"/>
      <point x="154" y="495" type="curve" smooth="yes"/>
      <point x="154" y="700" type="line"/>
      <point x="60" y="700" type="line"/>
      <point x="60" y="495" type="line" smooth="yes"/>
      <point x="60" y="334"/>
      <point x="131" y="263"/>
      <point x="295" y="263" type="curve" smooth="yes"/>
      <point x="376" y="263"/>
      <point x="441" y="285"/>
      <point x="476" y="308" type="curve" name="hr01"/>
      <point x="476" y="82" type="line"/>
      <point x="381" y="82" type="line"/>
    </contour>
  </outline>
</glyph>
<glyph name="cyrchedescleft" format="2">
  <advance width="555"/>
  <unicode hex="04CC"/>
  <outline>
    <contour>
      <point x="314" y="-125" type="line"/>
      <point x="398" y="-125" type="line" name="av01"/>
      <point x="398" y="0" type="line" name="hr01"/>
      <point x="475" y="0" type="line" name="ab01"/>
      <point x="475" y="530" type="line"/>
      <point x="387" y="530" type="line" name="at02"/>
      <point x="387" y="283" type="line"/>
      <point x="370" y="270" name="ih01"/>
      <point x="325" y="255"/>
      <point x="265" y="255" type="curve" smooth="yes" name="hr02"/>
      <point x="177" y="255" name="at01"/>
      <point x="143" y="284"/>
      <point x="143" y="375" type="curve" smooth="yes" name="sv02"/>
      <point x="143" y="530" type="line" name="iv01"/>
      <point x="55" y="530" type="line" name="sv01"/>
      <point x="55" y="360" type="line" smooth="yes"/>
      <point x="55" y="225" name="ih02"/>
      <point x="126" y="175" name="ih03"/>
      <point x="250" y="175" type="curve" smooth="yes"/>
      <point x="315" y="175"/>
      <point x="356" y="192"/>
      <point x="387" y="211" type="curve" name="hr01"/>
      <point x="387" y="78" type="line" name="hr03"/>
      <point x="314" y="78" type="line" name="hr04"/>
    </contour>
  </outline>
  <guideline angle="0" x="0" y="232"/>
</glyph>
<glyph name="uni04D8" format="2">
  <advance width="705"/>
  <unicode hex="04D8"/>
  <outline>
    <contour>
      <point x="335" y="-10" type="curve" smooth="yes"/>
      <point x="506" y="-10"/>
      <point x="645" y="97"/>
      <point x="645" y="345" type="curve" smooth="yes" name="at01"/>
      <point x="645" y="365" type="line" smooth="yes"/>
      <point x="645" y="604" name="iv02"/>
      <point x="505" y="710" name="ih01"/>
      <point x="343" y="710" type="curve" smooth="yes" name="iv01"/>
      <point x="203" y="710"/>
      <point x="102" y="632"/>
      <point x="70" y="500" type="curve" name="ab01"/>
      <point x="170" y="500" type="line"/>
      <point x="199" y="588"/>
      <point x="268" y="626" name="sv01"/>
      <point x="345" y="626" type="curve" smooth="yes" name="sh01"/>
      <point x="441" y="626" name="ih02"/>
      <point x="536" y="565" name="ih03"/>
      <point x="544" y="401" type="curve"/>
      <point x="55" y="401" type="line"/>
      <point x="55" y="345" type="line" smooth="yes"/>
      <point x="55" y="97"/>
      <point x="165" y="-10"/>
    </contour>
    <contour>
      <point x="335" y="74" type="curve" smooth="yes"/>
      <point x="235" y="74"/>
      <point x="166" y="136"/>
      <point x="155" y="319" type="curve"/>
      <point x="544" y="319" type="line"/>
      <point x="536" y="137"/>
      <point x="434" y="74"/>
    </contour>
  </outline>
  <guideline angle="0" x="0" y="401"/>
  <guideline angle="0" x="0" y="208"/>
</glyph>
<glyph name="uni04E8" format="2">
  <advance width="740"/>
  <unicode hex="04E8"/>
  <outline>
    <contour>
      <point x="370" y="-10" type="curve" smooth="yes"/>
      <point x="530" y="-10"/>
      <point x="680" y="95"/>
      <point x="680" y="345" type="curve" smooth="yes" name="at01"/>
      <point x="680" y="365" type="line" smooth="yes"/>
      <point x="680" y="605"/>
      <point x="530" y="710" name="ih01"/>
      <point x="370" y="710" type="curve" smooth="yes"/>
      <point x="210" y="710"/>
      <point x="60" y="605" name="sv01"/>
      <point x="60" y="365" type="curve" smooth="yes" name="sh01"/>
      <point x="60" y="345" type="line" smooth="yes"/>
      <point x="60" y="95" name="iv01"/>
      <point x="210" y="-10"/>
    </contour>
    <contour>
      <point x="370" y="74" type="curve" smooth="yes" name="ih02"/>
      <point x="266" y="74" name="ih03"/>
      <point x="171" y="143"/>
      <point x="160" y="315" type="curve"/>
      <point x="579" y="315" type="line"/>
      <point x="568" y="143"/>
      <point x="474" y="74"/>
    </contour>
    <contour>
      <point x="370" y="626" type="curve" smooth="yes"/>
      <point x="474" y="626"/>
      <point x="568" y="557"/>
      <point x="579" y="395" type="curve"/>
      <point x="160" y="395" type="line"/>
      <point x="171" y="557"/>
      <point x="267" y="626"/>
    </contour>
  </outline>
</glyph>
<glyph name="uni0513" format="2">
  <advance width="585"/>
  <unicode hex="0513"/>
  <outline>
    <contour>
      <point x="322" y="-195" type="line"/>
      <point x="340" y="-200" name="ab01"/>
      <point x="358" y="-202"/>
      <point x="376" y="-202" type="curve" smooth="yes"/>
      <point x="460" y="-202" name="at01"/>
      <point x="505" y="-138"/>
      <point x="505" y="-25" type="curve" smooth="yes" name="iv01"/>
      <point x="505" y="530" type="line"/>
      <point x="125" y="530" type="line"/>
      <point x="125" y="390" type="line" smooth="yes" name="ab02"/>
      <point x="125" y="145"/>
      <point x="100" y="80"/>
      <point x="40" y="80" type="curve" smooth="yes" name="sv02"/>
      <point x="32" y="80"/>
      <point x="27" y="80" name="sv01"/>
      <point x="25" y="81" type="curve" name="ih01"/>
      <point x="25" y="-7" type="line" name="ih02"/>
      <point x="35" y="-9" name="ih03"/>
      <point x="45" y="-10"/>
      <point x="55" y="-10" type="curve" smooth="yes"/>
      <point x="160" y="-10"/>
      <point x="213" y="75"/>
      <point x="213" y="370" type="curve" smooth="yes"/>
      <point x="213" y="452" type="line"/>
      <point x="417" y="452" type="line" name="hr01"/>
      <point x="417" y="0" type="line" smooth="yes"/>
      <point x="417" y="-85"/>
      <point x="402" y="-122"/>
      <point x="353" y="-122" type="curve" smooth="yes"/>
      <point x="344" y="-122"/>
      <point x="334" y="-121"/>
      <point x="322" y="-118" type="curve" name="hr02"/>
    </contour>
  </outline>
  <guideline angle="0" x="0" y="119"/>
</glyph>
<glyph name="daggerdbl" format="2">
  <advance width="550"/>
  <unicode hex="2021"/>
  <outline>
    <contour>
      <point x="233" y="-200" type="line"/>
      <point x="317" y="-200" type="line" name="ab01"/>
      <point x="317" y="0" type="line"/>
      <point x="505" y="0" type="line" name="ab02"/>
      <point x="505" y="74" type="line" name="sv07"/>
      <point x="317" y="74" type="line" name="sv06"/>
      <point x="317" y="456" type="line" name="sv05"/>
      <point x="505" y="456" type="line" name="sv04"/>
      <point x="505" y="530" type="line"/>
      <point x="317" y="530" type="line" name="at03"/>
      <point x="317" y="700" type="line"/>
      <point x="233" y="700" type="line" name="at01"/>
      <point x="233" y="530" type="line"/>
      <point x="45" y="530" type="line" name="at02"/>
      <point x="45" y="456" type="line" name="sv03"/>
      <point x="233" y="456" type="line" name="sv02"/>
      <point x="233" y="74" type="line"/>
      <point x="45" y="74" type="line" name="sv01"/>
      <point x="45" y="0" type="line"/>
      <point x="233" y="0" type="line" name="ih01"/>
    </contour>
  </outline>
</glyph>
<glyph name="bullet" format="2">
  <advance width="400"/>
  <unicode hex="2022"/>
  <outline>
    <contour>
      <point x="200" y="155" type="curve" smooth="yes"/>
      <point x="267" y="155"/>
      <point x="320" y="208" name="sv01"/>
      <point x="320" y="275" type="curve" smooth="yes"/>
      <point x="320" y="342" name="ih01"/>
      <point x="267" y="395" name="ih02"/>
      <point x="200" y="395" type="curve" smooth="yes" name="ih03"/>
      <point x="133" y="395"/>
      <point x="80" y="342"/>
      <point x="80" y="275" type="curve" smooth="yes"/>
      <point x="80" y="208"/>
      <point x="133" y="155"/>
    </contour>
  </outline>
</glyph>
<glyph name="foursuperior" format="2">
  <advance width="380"/>
  <unicode hex="2074"/>
  <outline>
    <contour>
      <point x="214" y="380" type="line"/>
      <point x="300" y="380" type="line" name="ab01"/>
      <point x="300" y="463" type="line"/>
      <point x="340" y="463" type="line" name="sv04"/>
      <point x="340" y="537" type="line"/>
      <point x="300" y="537" type="line" name="sv03"/>
      <point x="300" y="780" type="line"/>
      <point x="207" y="780" type="line" name="ih01"/>
      <point x="20" y="527" type="line" name="sv02"/>
      <point x="20" y="463" type="line"/>
      <point x="214" y="463" type="line" name="sv01"/>
    </contour>
    <contour>
      <point x="109" y="537" type="line"/>
      <point x="214" y="685" type="line"/>
      <point x="214" y="537" type="line" name="sh01"/>
    </contour>
  </outline>
</glyph>
<glyph name="uni20B4" format="2">
  <advance width="610"/>
  <unicode hex="20B4"/>
  <outline>
    <contour>
      <point x="60" y="400" type="line" name="sv04"/>
      <point x="550" y="400" type="line"/>
      <point x="550" y="472" type="line" name="sv03"/>
      <point x="470" y="472" type="line" name="sv02"/>
      <point x="487" y="503"/>
      <point x="495" y="525" name="at01"/>
      <point x="495" y="560" type="curve" smooth="yes" name="iv02"/>
      <point x="495" y="644"/>
      <point x="428" y="710" name="ih01"/>
      <point x="305" y="710" type="curve" smooth="yes"/>
      <point x="181" y="710"/>
      <point x="120" y="639" name="sv01"/>
      <point x="115" y="555" type="curve"/>
      <point x="205" y="555" type="line"/>
      <point x="210" y="598" name="iv03"/>
      <point x="236" y="630" name="sv07"/>
      <point x="305" y="630" type="curve" smooth="yes" name="hr01"/>
      <point x="377" y="630"/>
      <point x="405" y="602" name="sv06"/>
      <point x="405" y="555" type="curve" smooth="yes" name="hr02"/>
      <point x="405" y="519" name="iv01"/>
      <point x="398" y="503" name="sv05"/>
      <point x="374" y="472" type="curve"/>
      <point x="60" y="472" type="line"/>
    </contour>
    <contour>
      <point x="305" y="-10" type="curve" smooth="yes" name="sh01"/>
      <point x="438" y="-10" name="ih02"/>
      <point x="500" y="59" name="ih03"/>
      <point x="505" y="145" type="curve" name="hr03"/>
      <point x="415" y="145" type="line"/>
      <point x="410" y="102"/>
      <point x="382" y="70" name="hr04"/>
      <point x="305" y="70" type="curve" smooth="yes"/>
      <point x="226" y="70"/>
      <point x="195" y="102"/>
      <point x="195" y="145" type="curve" smooth="yes" name="hr05"/>
      <point x="195" y="185"/>
      <point x="207" y="208"/>
      <point x="238" y="244" type="curve"/>
      <point x="550" y="244" type="line"/>
      <point x="550" y="316" type="line"/>
      <point x="60" y="316" type="line"/>
      <point x="60" y="244" type="line"/>
      <point x="138" y="244" type="line"/>
      <point x="114" y="209"/>
      <point x="105" y="184"/>
      <point x="105" y="145" type="curve" smooth="yes"/>
      <point x="105" y="59"/>
      <point x="174" y="-10"/>
    </contour>
  </outline>
</glyph>
<glyph name="afii61352" format="2">
  <advance width="1095"/>
  <unicode hex="2116"/>
  <outline>
    <contour>
      <point x="100" y="0" type="line"/>
      <point x="192" y="0" type="line"/>
      <point x="192" y="545" type="line"/>
      <point x="568" y="0" type="line"/>
      <point x="660" y="0" type="line"/>
      <point x="660" y="700" type="line"/>
      <point x="568" y="700" type="line"/>
      <point x="568" y="155" type="line"/>
      <point x="192" y="700" type="line"/>
      <point x="100" y="700" type="line"/>
    </contour>
    <contour>
      <point x="900" y="370" type="curve" smooth="yes"/>
      <point x="993" y="370"/>
      <point x="1060" y="436"/>
      <point x="1060" y="535" type="curve" smooth="yes"/>
      <point x="1060" y="545" type="line" smooth="yes"/>
      <point x="1060" y="643"/>
      <point x="993" y="710" name="hr01"/>
      <point x="900" y="710" type="curve" smooth="yes" name="hr01"/>
      <point x="807" y="710"/>
      <point x="740" y="643"/>
      <point x="740" y="545" type="curve" smooth="yes"/>
      <point x="740" y="535" type="line" smooth="yes"/>
      <point x="740" y="436"/>
      <point x="807" y="370"/>
    </contour>
    <contour>
      <point x="900" y="446" type="curve" smooth="yes"/>
      <point x="855" y="446"/>
      <point x="826" y="475"/>
      <point x="826" y="535" type="curve" smooth="yes"/>
      <point x="826" y="545" type="line" smooth="yes"/>
      <point x="826" y="605"/>
      <point x="855" y="634"/>
      <point x="900" y="634" type="curve" smooth="yes"/>
      <point x="945" y="634"/>
      <point x="974" y="605"/>
      <point x="974" y="545" type="curve" smooth="yes"/>
      <point x="974" y="535" type="line" smooth="yes"/>
      <point x="974" y="475"/>
      <point x="945" y="446"/>
    </contour>
    <contour>
      <point x="750" y="233" type="line"/>
      <point x="1050" y="233" type="line"/>
      <point x="1050" y="307" type="line"/>
      <point x="750" y="307" type="line"/>
    </contour>
  </outline>
</glyph>
<glyph name="arrowleft" format="2">
  <advance width="750"/>
  <unicode hex="2190"/>
  <outline>
    <contour>
      <point x="315" y="50" type="line"/>
      <point x="430" y="50" type="line" name="sv03"/>
      <point x="171" y="309" type="line"/>
      <point x="725" y="309" type="line" name="sv02"/>
      <point x="725" y="391" type="line" name="av01"/>
      <point x="171" y="391" type="line"/>
      <point x="430" y="650" type="line" name="ih01"/>
      <point x="315" y="650" type="line" name="sv01"/>
      <point x="15" y="350" type="line"/>
    </contour>
  </outline>
</glyph>
<glyph name="arrowright" format="2">
  <advance width="750"/>
  <unicode hex="2192"/>
  <outline>
    <contour>
      <point x="320" y="50" type="line"/>
      <point x="435" y="50" type="line" name="sv02"/>
      <point x="735" y="350" type="line"/>
      <point x="435" y="650" type="line"/>
      <point x="320" y="650" type="line" name="ih01"/>
      <point x="579" y="391" type="line" name="av01"/>
      <point x="25" y="391" type="line"/>
      <point x="25" y="309" type="line"/>
      <point x="579" y="309" type="line" name="sv01"/>
    </contour>
  </outline>
</glyph>
<glyph name="arrowdown" format="2">
  <advance width="750"/>
  <unicode hex="2193"/>
  <outline>
    <contour>
      <point x="375" y="-10" type="line" name="ih01"/>
      <point x="675" y="290" type="line"/>
      <point x="675" y="405" type="line" name="iv04"/>
      <point x="419" y="150" type="line" name="iv03"/>
      <point x="419" y="700" type="line"/>
      <point x="331" y="700" type="line" name="at01"/>
      <point x="331" y="150" type="line" name="iv02"/>
      <point x="75" y="405" type="line" name="iv01"/>
      <point x="75" y="290" type="line"/>
    </contour>
  </outline>
</glyph>
<glyph name="arrownorthwest" format="2">
  <advance width="750"/>
  <unicode hex="2196"/>
  <outline>
    <contour>
      <point x="613" y="50" type="line" name="iv01"/>
      <point x="675" y="112" type="line"/>
      <point x="219" y="568" type="line"/>
      <point x="575" y="568" type="line" name="sv01"/>
      <point x="493" y="650" type="line" name="ih01"/>
      <point x="75" y="650" type="line"/>
      <point x="75" y="232" type="line"/>
      <point x="157" y="150" type="line" name="iv03"/>
      <point x="157" y="506" type="line" name="iv02"/>
    </contour>
  </outline>
</glyph>
<glyph name="arrowsouthwest" format="2">
  <advance width="750"/>
  <unicode hex="2199"/>
  <outline>
    <contour>
      <point x="75" y="50" type="line"/>
      <point x="493" y="50" type="line" name="ih01"/>
      <point x="575" y="132" type="line" name="sv01"/>
      <point x="215" y="132" type="line"/>
      <point x="675" y="592" type="line"/>
      <point x="617" y="650" type="line" name="av01"/>
      <point x="157" y="190" type="line" name="iv02"/>
      <point x="157" y="550" type="line" name="iv01"/>
      <point x="75" y="468" type="line"/>
    </contour>
  </outline>
</glyph>
<glyph name="Delta" format="2">
  <advance width="670"/>
  <unicode hex="2206"/>
  <outline>
    <contour>
      <point x="20" y="0" type="line"/>
      <point x="650" y="0" type="line" name="ab01"/>
      <point x="385" y="700" type="line"/>
      <point x="285" y="700" type="line" name="sh01"/>
    </contour>
    <contour>
      <point x="333" y="580" type="line" name="ih01"/>
      <point x="517" y="82" type="line"/>
      <point x="148" y="82" type="line" name="sv01"/>
    </contour>
  </outline>
</glyph>
<glyph name="minus" format="2">
  <advance width="550"/>
  <unicode hex="2212"/>
  <outline>
    <contour>
      <point x="50" y="319" type="line"/>
      <point x="500" y="319" type="line" name="sv01"/>
      <point x="500" y="401" type="line" name="av01"/>
      <point x="50" y="401" type="line" name="ih01"/>
    </contour>
  </outline>
</glyph>
<glyph name="greaterequal" format="2">
  <advance width="550"/>
  <unicode hex="2265"/>
  <outline>
    <contour>
      <point x="50" y="89" type="line"/>
      <point x="500" y="89" type="line" name="sv01"/>
      <point x="500" y="171" type="line" name="iv01"/>
      <point x="50" y="171" type="line" name="sh01"/>
    </contour>
    <contour>
      <point x="50" y="680" type="line" name="av01"/>
      <point x="50" y="582" type="line" name="iv05"/>
      <point x="390" y="438" type="line" name="ih01"/>
      <point x="50" y="294" type="line" name="iv04"/>
      <point x="50" y="200" type="line" name="iv02"/>
      <point x="500" y="401" type="line" name="iv03"/>
      <point x="500" y="479" type="line" name="hr01"/>
    </contour>
  </outline>
  <guideline angle="0" x="0" y="440"/>
  <guideline angle="0" x="0" y="130"/>
</glyph>
<glyph name="Cedilla" format="2">
  <advance width="220"/>
  <unicode hex="F407"/>
  <outline>
    <contour>
      <point x="80" y="-210" type="curve" smooth="yes"/>
      <point x="163" y="-210"/>
      <point x="200" y="-172"/>
      <point x="200" y="-115" type="curve" smooth="yes"/>
      <point x="200" y="-84"/>
      <point x="189" y="-51"/>
      <point x="137" y="-38" type="curve"/>
      <point x="144" y="10" type="line"/>
      <point x="80" y="10" type="line"/>
      <point x="63" y="-81" type="line"/>
      <point x="114" y="-81"/>
      <point x="120" y="-97" name="hr01"/>
      <point x="120" y="-113" type="curve" smooth="yes"/>
      <point x="120" y="-132"/>
      <point x="107" y="-146"/>
      <point x="70" y="-146" type="curve" smooth="yes"/>
      <point x="55" y="-146"/>
      <point x="43" y="-145"/>
      <point x="34" y="-144" type="curve"/>
      <point x="20" y="-142" type="line" name="hr02"/>
      <point x="20" y="-204" type="line"/>
      <point x="27" y="-205"/>
      <point x="32" y="-206"/>
      <point x="39" y="-207" type="curve"/>
      <point x="50" y="-209"/>
      <point x="63" y="-210"/>
    </contour>
  </outline>
</glyph>
<glyph name="Tilde" format="2">
  <advance width="380"/>
  <unicode hex="F40D"/>
  <outline>
    <contour>
      <point x="260" y="760" type="curve" smooth="yes"/>
      <point x="300" y="760"/>
      <point x="325" y="785"/>
      <point x="340" y="812" type="curve"/>
      <point x="349" y="827"/>
      <point x="355" y="845"/>
      <point x="360" y="865" type="curve"/>
      <point x="295" y="885" type="line"/>
      <point x="291" y="877"/>
      <point x="290" y="873"/>
      <point x="286" y="865" type="curve"/>
      <point x="279" y="854"/>
      <point x="270" y="845"/>
      <point x="255" y="845" type="curve" smooth="yes"/>
      <point x="215" y="845"/>
      <point x="184" y="890" name="hr01"/>
      <point x="120" y="890" type="curve" smooth="yes"/>
      <point x="80" y="890"/>
      <point x="55" y="864"/>
      <point x="40" y="837" type="curve"/>
      <point x="31" y="822"/>
      <point x="25" y="804"/>
      <point x="20" y="785" type="curve"/>
      <point x="85" y="765" type="line"/>
      <point x="89" y="773"/>
      <point x="90" y="777"/>
      <point x="94" y="785" type="curve"/>
      <point x="101" y="796"/>
      <point x="110" y="805"/>
      <point x="125" y="805" type="curve" smooth="yes"/>
      <point x="165" y="805"/>
      <point x="196" y="760" name="hr02"/>
    </contour>
  </outline>
</glyph>
<glyph name="cyrgebar.alt" format="2">
  <advance width="460"/>
  <unicode hex="F53D"/>
  <outline>
    <contour>
      <point x="168" y="0" type="line"/>
      <point x="168" y="231" type="line"/>
      <point x="345" y="231" type="line" name="sv02"/>
      <point x="345" y="309" type="line" name="iv01"/>
      <point x="168" y="309" type="line"/>
      <point x="168" y="452" type="line" name="ih01"/>
      <point x="440" y="452" type="line" name="sv01"/>
      <point x="440" y="530" type="line"/>
      <point x="80" y="530" type="line" name="at01"/>
      <point x="80" y="0" type="line" name="ab01"/>
    </contour>
  </outline>
  <guideline angle="0" x="0" y="259"/>
</glyph>
<glyph name="Caron" format="2">
  <advance width="360"/>
  <unicode hex="F6CA"/>
  <outline>
    <contour>
      <point x="130" y="750" type="line"/>
      <point x="229" y="750" type="line" name="ab01"/>
      <point x="340" y="900" type="line" name="sv03"/>
      <point x="260" y="900" type="line" name="sv02"/>
      <point x="180" y="820" type="line" name="ih01"/>
      <point x="100" y="900" type="line"/>
      <point x="20" y="900" type="line" name="sv01"/>
    </contour>
  </outline>
</glyph>
<glyph name="Dieresis" format="2">
  <advance width="380"/>
  <unicode hex="F6CB"/>
  <outline>
    <contour>
      <point x="80" y="765" type="curve" smooth="yes"/>
      <point x="113" y="765"/>
      <point x="140" y="792"/>
      <point x="140" y="825" type="curve" smooth="yes"/>
      <point x="140" y="858"/>
      <point x="113" y="885"/>
      <point x="80" y="885" type="curve" smooth="yes"/>
      <point x="47" y="885"/>
      <point x="20" y="858"/>
      <point x="20" y="825" type="curve" smooth="yes"/>
      <point x="20" y="792"/>
      <point x="47" y="765"/>
    </contour>
    <contour>
      <point x="300" y="765" type="curve" smooth="yes"/>
      <point x="333" y="765"/>
      <point x="360" y="792"/>
      <point x="360" y="825" type="curve" smooth="yes"/>
      <point x="360" y="858"/>
      <point x="333" y="885"/>
      <point x="300" y="885" type="curve" smooth="yes"/>
      <point x="267" y="885"/>
      <point x="240" y="858"/>
      <point x="240" y="825" type="curve" smooth="yes"/>
      <point x="240" y="792"/>
      <point x="267" y="765"/>
    </contour>
  </outline>
</glyph>
<glyph name="Grave" format="2">
  <advance width="270"/>
  <unicode hex="F6CE"/>
  <outline>
    <contour>
      <point x="170" y="750" type="line"/>
      <point x="250" y="750" type="line" name="ab01"/>
      <point x="139" y="900" type="line" name="ih01"/>
      <point x="20" y="900" type="line" name="sv01"/>
    </contour>
  </outline>
</glyph>
<glyph name="cyrbreve" format="2">
  <advance width="340"/>
  <unicode hex="F6D4"/>
  <outline>
    <contour>
      <point x="170" y="595" type="curve" smooth="yes"/>
      <point x="274" y="595" name="sv03"/>
      <point x="320" y="641" name="sv02"/>
      <point x="320" y="725" type="curve" name="iv01"/>
      <point x="236" y="725" type="line"/>
      <point x="236" y="680" name="sv01"/>
      <point x="214" y="657" name="ih01"/>
      <point x="170" y="657" type="curve" smooth="yes" name="hr01"/>
      <point x="127" y="657" name="ih02"/>
      <point x="106" y="680"/>
      <point x="106" y="725" type="curve" name="hr02"/>
      <point x="20" y="725" type="line"/>
      <point x="20" y="641"/>
      <point x="66" y="595"/>
    </contour>
  </outline>
</glyph>
<glyph name="zerooldstyle" format="2">
  <advance width="620"/>
  <unicode hex="F730"/>
  <outline>
    <contour>
      <point x="310" y="-10" type="curve" smooth="yes"/>
      <point x="467" y="-10"/>
      <point x="570" y="92"/>
      <point x="570" y="260" type="curve" smooth="yes" name="at01"/>
      <point x="570" y="280" type="line" smooth="yes"/>
      <point x="570" y="443"/>
      <point x="473" y="540" name="ih01"/>
      <point x="310" y="540" type="curve" smooth="yes"/>
      <point x="153" y="540"/>
      <point x="50" y="437"/>
      <point x="50" y="280" type="curve" smooth="yes" name="sv01"/>
      <point x="50" y="260" type="line" smooth="yes"/>
      <point x="50" y="87"/>
      <point x="147" y="-10" name="sh01"/>
    </contour>
    <contour>
      <point x="310" y="72" type="curve" smooth="yes" name="ih03"/>
      <point x="211" y="72"/>
      <point x="144" y="139"/>
      <point x="144" y="260" type="curve" smooth="yes"/>
      <point x="144" y="280" type="line" smooth="yes"/>
      <point x="144" y="393"/>
      <point x="210" y="458"/>
      <point x="310" y="458" type="curve" smooth="yes"/>
      <point x="409" y="458"/>
      <point x="476" y="391"/>
      <point x="476" y="280" type="curve" smooth="yes"/>
      <point x="476" y="260" type="line" smooth="yes"/>
      <point x="476" y="137"/>
      <point x="410" y="72"/>
    </contour>
  </outline>
</glyph>
<glyph name="oneoldstyle" format="2">
  <advance width="430"/>
  <unicode hex="F731"/>
  <outline>
    <contour>
      <point x="234" y="0" type="line"/>
      <point x="330" y="0" type="line" name="ab01"/>
      <point x="330" y="530" type="line"/>
      <point x="236" y="530" type="line" name="at01"/>
      <point x="60" y="410" type="line"/>
      <point x="60" y="308" type="line" name="iv01"/>
      <point x="234" y="427" type="line" name="ih01"/>
    </contour>
  </outline>
</glyph>
<glyph name="twooldstyle" format="2">
  <advance width="550"/>
  <unicode hex="F732"/>
  <outline>
    <contour>
      <point x="55" y="0" type="line"/>
      <point x="485" y="0" type="line" name="ab01"/>
      <point x="485" y="82" type="line"/>
      <point x="205" y="82" type="line" name="sv01"/>
      <point x="279" y="131" type="line" smooth="yes" name="ih01"/>
      <point x="444" y="240"/>
      <point x="485" y="285" name="at01"/>
      <point x="485" y="370" type="curve" smooth="yes" name="iv02"/>
      <point x="485" y="467"/>
      <point x="408" y="540" name="sv03"/>
      <point x="280" y="540" type="curve" smooth="yes"/>
      <point x="143" y="540" name="iv01"/>
      <point x="55" y="452" name="sv02"/>
      <point x="55" y="335" type="curve" name="ih02"/>
      <point x="149" y="335" type="line" name="ih03"/>
      <point x="149" y="411"/>
      <point x="192" y="456" name="hr01"/>
      <point x="280" y="456" type="curve" smooth="yes" name="hr01"/>
      <point x="352" y="456"/>
      <point x="391" y="418"/>
      <point x="391" y="370" type="curve" smooth="yes"/>
      <point x="391" y="317"/>
      <point x="366" y="288"/>
      <point x="235" y="200" type="curve"/>
      <point x="55" y="77" type="line"/>
    </contour>
  </outline>
</glyph>
<glyph name="threeoldstyle" format="2">
  <advance width="560"/>
  <unicode hex="F733"/>
  <outline>
    <contour>
      <point x="270" y="-210" type="curve" smooth="yes"/>
      <point x="413" y="-210"/>
      <point x="500" y="-116" name="iv04"/>
      <point x="500" y="-10" type="curve" smooth="yes"/>
      <point x="500" y="95" name="at01"/>
      <point x="451" y="155" name="iv03"/>
      <point x="380" y="180" type="curve"/>
      <point x="445" y="203" name="sv03"/>
      <point x="490" y="265"/>
      <point x="490" y="350" type="curve" smooth="yes" name="iv02"/>
      <point x="490" y="455"/>
      <point x="408" y="540"/>
      <point x="270" y="540" type="curve" smooth="yes" name="sv02"/>
      <point x="133" y="540"/>
      <point x="50" y="450" name="sv01"/>
      <point x="50" y="335" type="curve"/>
      <point x="144" y="335" type="line" name="iv01"/>
      <point x="144" y="406" name="ih01"/>
      <point x="186" y="456" name="ih02"/>
      <point x="270" y="456" type="curve" smooth="yes" name="ih03"/>
      <point x="358" y="456"/>
      <point x="396" y="409"/>
      <point x="396" y="340" type="curve" smooth="yes"/>
      <point x="396" y="253"/>
      <point x="352" y="215"/>
      <point x="260" y="215" type="curve" smooth="yes"/>
      <point x="205" y="215" type="line"/>
      <point x="205" y="135" type="line"/>
      <point x="260" y="135" type="line" smooth="yes"/>
      <point x="355" y="135"/>
      <point x="406" y="95"/>
      <point x="406" y="0" type="curve" smooth="yes"/>
      <point x="406" y="-72"/>
      <point x="362" y="-126"/>
      <point x="270" y="-126" type="curve" smooth="yes"/>
      <point x="178" y="-126"/>
      <point x="134" y="-72"/>
      <point x="134" y="5" type="curve" name="hr01"/>
      <point x="40" y="5" type="line"/>
      <point x="40" y="-116"/>
      <point x="129" y="-210"/>
    </contour>
  </outline>
</glyph>
<glyph name="fouroldstyle" format="2">
  <advance width="560"/>
  <unicode hex="F734"/>
  <outline>
    <contour>
      <point x="356" y="-200" type="line"/>
      <point x="450" y="-200" type="line" name="ab01"/>
      <point x="450" y="0" type="line"/>
      <point x="540" y="0" type="line" name="ab03"/>
      <point x="540" y="82" type="line"/>
      <point x="450" y="82" type="line" name="sv01"/>
      <point x="450" y="530" type="line"/>
      <point x="346" y="530" type="line" name="ih01"/>
      <point x="20" y="72" type="line" name="sv03"/>
      <point x="20" y="0" type="line"/>
      <point x="356" y="0" type="line" name="ab02"/>
    </contour>
    <contour>
      <point x="120" y="82" type="line" name="sv02"/>
      <point x="356" y="420" type="line" name="iv01"/>
      <point x="356" y="82" type="line" name="sh01"/>
    </contour>
  </outline>
</glyph>
<glyph name="sixoldstyle" format="2">
  <advance width="580"/>
  <unicode hex="F736"/>
  <outline>
    <contour>
      <point x="305" y="-10" type="curve" smooth="yes"/>
      <point x="424" y="-10"/>
      <point x="530" y="86"/>
      <point x="530" y="219" type="curve" smooth="yes"/>
      <point x="530" y="229" type="line" smooth="yes"/>
      <point x="530" y="374"/>
      <point x="441" y="455"/>
      <point x="310" y="455" type="curve" smooth="yes"/>
      <point x="247" y="455"/>
      <point x="183" y="430"/>
      <point x="146" y="365" type="curve"/>
      <point x="151" y="564"/>
      <point x="224" y="626"/>
      <point x="315" y="626" type="curve" smooth="yes"/>
      <point x="362" y="626"/>
      <point x="402" y="603"/>
      <point x="421" y="555" type="curve" name="hr01"/>
      <point x="515" y="555" type="line"/>
      <point x="491" y="659"/>
      <point x="414" y="710"/>
      <point x="315" y="710" type="curve" smooth="yes"/>
      <point x="179" y="710"/>
      <point x="60" y="606"/>
      <point x="60" y="330" type="curve" smooth="yes"/>
      <point x="60" y="310" type="line" smooth="yes"/>
      <point x="60" y="86"/>
      <point x="155" y="-10"/>
    </contour>
    <contour>
      <point x="297" y="74" type="curve" smooth="yes"/>
      <point x="209" y="74"/>
      <point x="158" y="126"/>
      <point x="158" y="218" type="curve" smooth="yes" name="hr02"/>
      <point x="158" y="228" type="line" smooth="yes"/>
      <point x="158" y="320"/>
      <point x="209" y="371"/>
      <point x="297" y="371" type="curve" smooth="yes"/>
      <point x="385" y="371"/>
      <point x="436" y="320"/>
      <point x="436" y="228" type="curve" smooth="yes"/>
      <point x="436" y="218" type="line" smooth="yes"/>
      <point x="436" y="125"/>
      <point x="385" y="74"/>
    </contour>
  </outline>
</glyph>
<glyph name="Euro.tab" format="2">
  <advance width="620"/>
  <outline>
    <contour>
      <point x="347" y="-10" type="curve" smooth="yes"/>
      <point x="476" y="-10" name="iv03"/>
      <point x="563" y="55"/>
      <point x="582" y="210" type="curve" name="sv09"/>
      <point x="482" y="210" type="line"/>
      <point x="471" y="130" name="sv08"/>
      <point x="438" y="74" name="hr01"/>
      <point x="347" y="74" type="curve" smooth="yes" name="sv07"/>
      <point x="284" y="74"/>
      <point x="222" y="118"/>
      <point x="201" y="241" type="curve"/>
      <point x="402" y="241" type="line" name="sv06"/>
      <point x="402" y="313" type="line"/>
      <point x="193" y="313" type="line" name="sv05"/>
      <point x="192" y="324" name="sv04"/>
      <point x="192" y="334"/>
      <point x="192" y="345" type="curve" smooth="yes" name="iv02"/>
      <point x="192" y="365" type="line" smooth="yes" name="at01"/>
      <point x="192" y="376" name="sv02"/>
      <point x="192" y="386"/>
      <point x="193" y="397" type="curve"/>
      <point x="402" y="397" type="line" name="sv03"/>
      <point x="402" y="469" type="line"/>
      <point x="201" y="469" type="line"/>
      <point x="222" y="582" name="iv01"/>
      <point x="278" y="626"/>
      <point x="347" y="626" type="curve" smooth="yes"/>
      <point x="430" y="626" name="sv01"/>
      <point x="465" y="581" name="ih01"/>
      <point x="482" y="490" type="curve" name="ih02"/>
      <point x="582" y="490" type="line" name="ih03"/>
      <point x="566" y="631"/>
      <point x="488" y="710"/>
      <point x="347" y="710" type="curve" smooth="yes"/>
      <point x="226" y="710"/>
      <point x="128" y="634"/>
      <point x="101" y="469" type="curve"/>
      <point x="32" y="469" type="line"/>
      <point x="32" y="397" type="line"/>
      <point x="93" y="397" type="line"/>
      <point x="92" y="386"/>
      <point x="92" y="376"/>
      <point x="92" y="365" type="curve" smooth="yes"/>
      <point x="92" y="345" type="line" smooth="yes"/>
      <point x="92" y="334"/>
      <point x="92" y="324"/>
      <point x="93" y="313" type="curve"/>
      <point x="32" y="313" type="line" name="hr01"/>
      <point x="32" y="241" type="line"/>
      <point x="100" y="241" type="line"/>
      <point x="127" y="67"/>
      <point x="225" y="-10"/>
    </contour>
  </outline>
</glyph>
<glyph name="approxequal.tab" format="2">
  <advance width="620"/>
  <outline>
    <contour>
      <point x="405" y="180" type="curve" smooth="yes"/>
      <point x="457" y="180"/>
      <point x="494" y="205"/>
      <point x="517" y="232" type="curve" smooth="yes"/>
      <point x="530" y="247"/>
      <point x="541" y="265"/>
      <point x="550" y="285" type="curve"/>
      <point x="487" y="325" type="line"/>
      <point x="482" y="313"/>
      <point x="475" y="303"/>
      <point x="468" y="294" type="curve"/>
      <point x="455" y="279"/>
      <point x="437" y="264"/>
      <point x="410" y="264" type="curve" smooth="yes"/>
      <point x="350" y="264"/>
      <point x="301" y="340" name="hr01"/>
      <point x="215" y="340" type="curve" smooth="yes"/>
      <point x="162" y="340"/>
      <point x="126" y="314"/>
      <point x="103" y="287" type="curve" smooth="yes"/>
      <point x="90" y="272"/>
      <point x="79" y="254"/>
      <point x="70" y="235" type="curve"/>
      <point x="133" y="195" type="line"/>
      <point x="138" y="206"/>
      <point x="145" y="216"/>
      <point x="152" y="225" type="curve"/>
      <point x="165" y="240"/>
      <point x="183" y="256"/>
      <point x="210" y="256" type="curve" smooth="yes"/>
      <point x="269" y="256"/>
      <point x="320" y="180" name="hr02"/>
    </contour>
    <contour>
      <point x="405" y="380" type="curve" smooth="yes"/>
      <point x="457" y="380"/>
      <point x="494" y="405"/>
      <point x="517" y="432" type="curve" smooth="yes"/>
      <point x="530" y="447"/>
      <point x="541" y="465"/>
      <point x="550" y="485" type="curve"/>
      <point x="487" y="525" type="line"/>
      <point x="482" y="513"/>
      <point x="475" y="503"/>
      <point x="468" y="494" type="curve"/>
      <point x="455" y="479"/>
      <point x="437" y="464"/>
      <point x="410" y="464" type="curve" smooth="yes"/>
      <point x="350" y="464"/>
      <point x="301" y="540"/>
      <point x="215" y="540" type="curve" smooth="yes" name="hr03"/>
      <point x="162" y="540"/>
      <point x="126" y="514"/>
      <point x="103" y="487" type="curve" smooth="yes"/>
      <point x="90" y="472"/>
      <point x="79" y="454"/>
      <point x="70" y="435" type="curve"/>
      <point x="133" y="395" type="line"/>
      <point x="138" y="406"/>
      <point x="145" y="416"/>
      <point x="152" y="425" type="curve"/>
      <point x="165" y="440"/>
      <point x="183" y="456"/>
      <point x="210" y="456" type="curve" smooth="yes"/>
      <point x="269" y="456"/>
      <point x="320" y="380"/>
    </contour>
  </outline>
</glyph>
<glyph name="asciitilde.tab" format="2">
  <advance width="620"/>
  <outline>
    <contour>
      <point x="405" y="280" type="curve" smooth="yes"/>
      <point x="457" y="280"/>
      <point x="494" y="305"/>
      <point x="517" y="332" type="curve" smooth="yes"/>
      <point x="530" y="347"/>
      <point x="541" y="365"/>
      <point x="550" y="385" type="curve"/>
      <point x="487" y="425" type="line"/>
      <point x="482" y="413"/>
      <point x="475" y="403"/>
      <point x="468" y="394" type="curve"/>
      <point x="455" y="379"/>
      <point x="437" y="364"/>
      <point x="410" y="364" type="curve" smooth="yes"/>
      <point x="350" y="364"/>
      <point x="301" y="440" name="hr01"/>
      <point x="215" y="440" type="curve" smooth="yes"/>
      <point x="162" y="440"/>
      <point x="126" y="414"/>
      <point x="103" y="387" type="curve" smooth="yes"/>
      <point x="90" y="372"/>
      <point x="79" y="354"/>
      <point x="70" y="335" type="curve"/>
      <point x="133" y="295" type="line"/>
      <point x="138" y="306"/>
      <point x="145" y="316"/>
      <point x="152" y="325" type="curve"/>
      <point x="165" y="340"/>
      <point x="183" y="356"/>
      <point x="210" y="356" type="curve" smooth="yes"/>
      <point x="269" y="356"/>
      <point x="320" y="280" name="hr02"/>
    </contour>
  </outline>
</glyph>
<glyph name="four.tab" format="2">
  <advance width="620"/>
  <outline>
    <contour>
      <point x="478" y="0" type="line"/>
      <point x="478" y="169" type="line"/>
      <point x="568" y="169" type="line" name="sv04"/>
      <point x="568" y="251" type="line"/>
      <point x="478" y="251" type="line" name="sv03"/>
      <point x="478" y="700" type="line"/>
      <point x="374" y="700" type="line" name="ih01"/>
      <point x="48" y="241" type="line" name="sv02"/>
      <point x="48" y="169" type="line"/>
      <point x="384" y="169" type="line" name="sv01"/>
      <point x="384" y="0" type="line" name="ab01"/>
    </contour>
    <contour>
      <point x="384" y="581" type="line" name="iv01"/>
      <point x="384" y="251" type="line" name="sh01"/>
      <point x="148" y="251" type="line"/>
    </contour>
  </outline>
</glyph>
<glyph name="multiply.tab" format="2">
  <advance width="620"/>
  <outline>
    <contour>
      <point x="169" y="160" type="line" name="sv02"/>
      <point x="310" y="301" type="line"/>
      <point x="451" y="160" type="line" name="iv01"/>
      <point x="510" y="219" type="line"/>
      <point x="369" y="360" type="line"/>
      <point x="510" y="501" type="line"/>
      <point x="451" y="560" type="line" name="sv01"/>
      <point x="310" y="419" type="line" name="ih01"/>
      <point x="169" y="560" type="line" name="av01"/>
      <point x="110" y="501" type="line"/>
      <point x="251" y="360" type="line"/>
      <point x="110" y="219" type="line"/>
    </contour>
  </outline>
</glyph>
<glyph name="one.tab" format="2">
  <advance width="620"/>
  <outline>
    <contour>
      <point x="545" y="0" type="line"/>
      <point x="545" y="82" type="line" name="sv03"/>
      <point x="378" y="82" type="line" name="sv02"/>
      <point x="378" y="700" type="line"/>
      <point x="284" y="700" type="line" name="ih01"/>
      <point x="97" y="569" type="line"/>
      <point x="97" y="467" type="line" name="iv01"/>
      <point x="282" y="597" type="line" name="iv02"/>
      <point x="282" y="82" type="line"/>
      <point x="85" y="82" type="line" name="sv01"/>
      <point x="85" y="0" type="line" name="ab01"/>
    </contour>
  </outline>
</glyph>
<glyph name="radical.tab" format="2">
  <advance width="620"/>
  <outline>
    <contour>
      <point x="25" y="309" type="line" name="sv02"/>
      <point x="82" y="309" type="line"/>
      <point x="238" y="-100" type="line"/>
      <point x="343" y="-100" type="line" name="av01"/>
      <point x="525" y="718" type="line"/>
      <point x="595" y="718" type="line" name="sv01"/>
      <point x="595" y="800" type="line" name="av02"/>
      <point x="455" y="800" type="line"/>
      <point x="284" y="25" type="line" name="ih01"/>
      <point x="145" y="391" type="line"/>
      <point x="25" y="391" type="line" name="iv01"/>
    </contour>
  </outline>
</glyph>
<glyph name="seven.tab" format="2">
  <advance width="620"/>
  <outline>
    <contour>
      <point x="290" y="0" type="line" name="ih01"/>
      <point x="560" y="623" type="line" name="sv02"/>
      <point x="560" y="700" type="line"/>
      <point x="71" y="700" type="line" name="at01"/>
      <point x="71" y="618" type="line"/>
      <point x="467" y="618" type="line" name="sv01"/>
      <point x="195" y="0" type="line" name="ab01"/>
    </contour>
  </outline>
</glyph>
<glyph name="sevenoldstyle.tab" format="2">
  <advance width="620"/>
  <outline>
    <contour>
      <point x="170" y="-200" type="line"/>
      <point x="270" y="-200" type="line" name="ih01"/>
      <point x="530" y="453" type="line" name="sv02"/>
      <point x="530" y="530" type="line"/>
      <point x="80" y="530" type="line" name="at01"/>
      <point x="80" y="448" type="line"/>
      <point x="432" y="448" type="line" name="sv01"/>
    </contour>
  </outline>
</glyph>
<glyph name="yen.tab" format="2">
  <advance width="620"/>
  <outline>
    <contour>
      <point x="268" y="0" type="line"/>
      <point x="362" y="0" type="line" name="ab01"/>
      <point x="362" y="156" type="line"/>
      <point x="555" y="156" type="line" name="sv07"/>
      <point x="555" y="228" type="line"/>
      <point x="362" y="228" type="line" name="sv06"/>
      <point x="362" y="312" type="line"/>
      <point x="555" y="312" type="line" name="sv05"/>
      <point x="555" y="384" type="line"/>
      <point x="417" y="384" type="line" name="sv04"/>
      <point x="600" y="700" type="line"/>
      <point x="496" y="700" type="line" name="at02"/>
      <point x="314" y="384" type="line" name="ih01"/>
      <point x="128" y="700" type="line"/>
      <point x="20" y="700" type="line" name="at01"/>
      <point x="209" y="384" type="line" name="sv02"/>
      <point x="75" y="384" type="line"/>
      <point x="75" y="312" type="line"/>
      <point x="268" y="312" type="line" name="sv03"/>
      <point x="268" y="228" type="line" name="iv01"/>
      <point x="75" y="228" type="line"/>
      <point x="75" y="156" type="line"/>
      <point x="268" y="156" type="line" name="sv01"/>
    </contour>
  </outline>
</glyph>
